<svg width="527" height="842" viewBox="0 0 527 842" fill="none" xmlns="http://www.w3.org/2000/svg">
<path d="M380.848 51.3594C380.358 40.2994 386.378 34.1895 398.908 33.0195C399.508 32.9695 400.128 32.9395 400.758 32.9395C410.088 32.9395 421.868 39.1794 436.128 51.6794C437.008 52.4494 437.898 53.2395 438.798 54.0695C439.108 54.3495 438.898 54.8594 438.498 54.8594H438.458C435.308 54.6094 432.168 54.4894 429.038 54.4894C427.128 54.4894 425.228 54.5395 423.328 54.6295C415.928 55.3195 408.418 56.1494 400.808 57.0994C400.788 57.0994 400.778 57.0994 400.758 57.0994C399.788 57.1494 398.838 57.1694 397.918 57.1694C389.498 57.1694 383.848 55.3394 380.998 51.6694C380.968 51.6394 380.958 51.6394 380.938 51.6094C380.878 51.5394 380.848 51.4394 380.848 51.3494V51.3594Z" fill="#446784"/>
<path d="M473.739 404.51C471.899 405.53 470.079 406.53 468.279 407.53C401.999 444.23 356.919 471.67 332.999 489.9C332.219 504.41 330.189 511.68 326.899 511.68C321.299 506.71 318.489 503.18 318.489 501.07H316.749C307.269 508.91 299.719 517.41 294.109 526.58L328.929 525.72C375.949 524.76 418.499 522.28 456.619 518.27C457.859 518.24 459.079 518.22 460.289 518.22C463.009 518.22 465.679 518.3 468.279 518.45C484.849 519.39 498.859 523.37 510.299 530.37C515.159 533.35 519.559 536.87 523.499 540.94C524.709 542.2 525.869 543.5 526.959 544.85V110.31C526.959 61.5904 494.749 20.0203 450.559 5.85034C450.669 5.94034 450.789 6.04038 450.899 6.14038C465.529 18.6904 476.589 33.8704 484.079 51.6804C488.919 63.1704 492.269 75.7604 494.129 89.4504C497.969 117.21 495.249 142.71 485.979 165.97C481.359 174.26 475.459 183.07 468.279 192.41C452.939 212.35 431.769 234.69 404.749 259.41C382.829 279.47 359.239 298.67 333.189 313.13C319.459 320.74 298.969 326.59 280.289 326.59C271.049 326.59 262.249 325.16 254.929 321.81C239.129 314.59 228.779 299.17 220.879 283.71C210.489 263.38 202.859 241.77 195.419 220.18C195.299 219.83 195.579 219.57 195.859 219.57C196.009 219.57 196.139 219.64 196.239 219.79C205.099 234.32 214.349 248.8 226.829 260.34C239.239 271.82 255.459 280.18 272.229 280.18C273.689 280.18 275.169 280.11 276.639 279.98C288.689 278.9 304.599 277.4 315.469 272.07C332.059 263.93 347.149 253.68 362.209 243.41C378.359 232.4 393.439 219.47 408.019 206.49C435.369 182.21 455.449 162.55 468.279 147.51C476.389 138.01 481.589 130.35 483.889 124.54C483.939 124.42 483.939 124.3 483.889 124.19C482.079 119.42 476.879 115.06 468.279 111.12C467.009 110.54 465.679 109.97 464.269 109.4C454.949 105.7 445.109 103.85 434.769 103.85C430.479 103.85 426.119 104.17 421.659 104.8C409.609 106.42 402.119 107.37 399.159 107.65C396.659 107.88 394.249 108 391.939 108C377.229 108 366.569 103.24 359.969 93.7203C355.999 87.9803 353.499 80.5104 352.469 71.3204C351.679 64.5504 351.549 58.0104 352.059 51.6804C353.229 36.8104 357.959 23.1504 366.219 10.6904C368.699 6.95037 371.259 3.61039 373.909 0.650391H0.949219V731.76C0.949219 750.67 5.79923 768.51 14.3392 784.08C22.3092 783.92 33.2293 780.76 47.1393 774.62C54.2293 771.48 62.0892 767.58 70.7192 762.89C82.6992 756.39 96.1793 748.39 111.139 738.89C114.139 736.98 117.199 735.02 120.319 733C125.309 729.73 130.089 726.6 134.629 723.6C173.389 698.02 196.059 682.04 202.619 675.66C205.779 672.89 207.369 670.21 207.369 667.64C207.369 663.88 203.699 659.31 196.379 653.97C187.469 647.24 173.099 639.12 153.289 629.61C131.709 619.51 115.659 610.89 105.169 603.76C99.6393 599.98 94.2993 595.91 89.1693 591.56C87.5893 590.23 86.0293 588.87 84.4893 587.48C73.9793 578.01 64.3293 567.29 55.5593 555.34C54.0593 553.51 51.2593 551.28 47.1393 548.63C46.5193 548.24 45.8692 547.83 45.1992 547.41C44.9892 547.28 44.7793 547.15 44.5593 547.02C41.3893 545.24 39.8093 541.07 39.8093 534.55V509.29C39.8093 507.12 40.0992 505.53 40.6892 504.53C40.9392 504.29 41.3093 504.17 41.7993 504.17C42.5993 504.17 43.7292 504.5 45.1992 505.16C45.7292 505.4 46.3092 505.69 46.9392 506.03L47.1393 506.12L84.4893 523.89L89.1693 526.11L90.0193 526.52C91.7993 527.31 93.3793 528.11 94.7693 528.9C101.699 532.86 108.159 539.62 106.379 541.59C105.679 542.36 104.129 542.64 101.929 542.64C98.7993 542.64 94.3393 542.06 89.1693 541.48C87.6593 541.31 86.0893 541.15 84.4893 540.98C82.4293 540.78 80.3093 540.61 78.1393 540.48C80.1693 542.47 82.2893 544.44 84.4893 546.36C86.0093 547.7 87.5693 549.03 89.1693 550.33C103.359 561.97 120.469 572.45 140.519 581.78C172.009 596.64 190.629 606.24 196.379 610.59C210.229 620.1 217.169 636.55 217.169 659.92C217.169 664.87 216.769 669.72 215.989 674.47C213.799 687.35 211.229 696.46 208.259 701.8C206.279 705.56 201.919 710.52 195.179 716.66C192.909 718.72 190.179 721.03 186.989 723.6C181.549 727.97 174.809 733.07 166.739 738.89C157.079 745.85 145.539 753.85 132.099 762.89C126.699 766.52 120.979 770.32 114.969 774.3C111.599 776.58 108.309 778.79 105.089 780.92C79.2792 798.02 58.4492 810.25 42.5992 817.62C42.5992 817.62 42.6059 817.627 42.6193 817.64C61.3293 832.53 84.9893 841.45 110.609 841.45H526.929C526.929 841.45 526.959 841.44 526.959 841.43V667.69C522.309 676.16 516.759 684.44 510.299 692.54C499.039 706.67 485.039 720.25 468.279 733.26C465.849 735.15 463.369 737.03 460.829 738.89C460.539 739.1 460.239 739.32 459.949 739.53C446.289 749.47 431.009 757.04 414.779 761.7C397.219 766.75 379.919 769.47 362.889 769.85C361.889 769.88 360.899 769.88 359.919 769.88C330.449 769.88 303.899 759.55 280.229 738.89C278.749 737.6 277.289 736.27 275.839 734.89C256.289 708.33 246.139 678.05 245.369 644.06L245.079 626.87C244.489 605.85 246.709 584.54 251.739 562.96C244.689 561.43 235.129 559.2 228.039 557.53C219.069 555.4 210.359 552.28 202.179 548.01C196.539 545.06 192.069 542.12 188.769 539.18C176.009 526.77 167.689 514.73 163.829 503.08C157.429 491.43 151.439 408.43 145.829 254.07C143.699 209.57 139.819 171.65 134.219 140.32C129.769 122.17 126.099 111.95 123.189 109.66C120.469 109.66 113.809 122.08 103.169 146.91L101.719 147.77H101.129C100.159 147.77 99.6892 147.3 99.6892 146.34C99.6892 130.66 104.139 113.11 113.039 93.7203C114.249 91.0903 115.529 88.4304 116.899 85.7404C119.299 81.0004 122.749 76.8504 127.019 73.7004C127.919 73.0304 128.479 72.7004 128.709 72.7004H132.189C138.319 72.7004 143.719 79.7003 148.379 93.7203C159.739 127.87 166.719 203.67 169.329 321.13C169.329 323.16 169.339 325.16 169.349 327.16C169.349 328.47 169.369 329.78 169.369 331.08C169.879 396.04 175.479 445.15 186.169 478.45C192.209 492.8 202.699 504.67 217.599 514.12C235.529 521.69 252.209 525.49 267.659 525.49C268.739 525.49 269.819 525.46 270.899 525.43C270.899 524.66 279.989 511.59 298.179 486.17V484.45C282.699 477.53 260.979 464.12 233.039 444.2C228.619 441.05 224.759 437.13 221.909 432.52C218.519 426.99 216.759 421.19 216.629 415.11C216.199 399.64 223.979 387.18 239.979 377.72C249.079 372.34 259.269 369.05 269.769 367.75C292.149 364.99 320.579 363.2 355.059 362.39L424.689 360.66C427.039 360.66 449.619 360.74 468.279 360.8C481.929 360.84 493.479 360.89 493.479 360.89L493.539 363.99C492.599 366.79 492.759 369.67 492.329 372.59C489.209 393.69 492.989 393.34 473.739 404.51ZM245.039 151.52C250.169 147.38 263.279 154.13 267.829 157.57C280.369 167.04 285.559 179.67 292.729 192.86C293.439 194.16 293.479 195.99 295.599 195.86C295.769 178.94 289.939 143.44 301.489 129.95C310.089 119.91 324.989 130.96 326.429 140.53C326.769 142.84 326.109 153.3 323.239 153.31C317.879 153.33 309.549 138.34 304.159 152.84C296.469 173.54 309.999 204.49 299.169 224.81C294.859 222 294.419 216.29 291.789 211.53C288.349 205.31 271.269 180.45 265.979 177.75C264.749 177.12 264.369 176.72 262.939 177.54C259.799 187.37 241.429 178.41 239.049 172.82C237.929 170.16 242.859 153.29 245.039 151.52ZM424.259 293.07C412.819 301.4 398.279 312.44 380.709 326.26C375.739 330.17 370.509 334.32 365.049 338.68C363.479 339.93 361.889 341.2 360.289 342.48L359.979 338.87L359.319 331.22C361.049 329.84 362.919 328.34 364.949 326.73C366.129 325.8 367.359 324.83 368.639 323.83C368.639 323.83 368.646 323.824 368.659 323.81L423.539 281.77C431.349 276.07 441.179 269.08 453.009 260.79C459.489 256.26 466.569 251.33 474.249 246.03L474.999 257.24C473.349 257.82 461.549 265.94 424.259 293.07ZM505.809 578.26C499.569 574.18 491.749 570.51 482.539 567.35L467.679 566.27L452.549 565.18C385.089 569.92 338.779 572.61 314.909 573.18H314.719C311.509 573.18 293.769 572.94 277.429 572.7C269.749 593.96 266.119 614.69 266.629 634.38C267.529 671.52 282.669 696.07 312.909 709.47C321.999 713.49 332.039 716.13 342.739 717.29C349.469 718.02 355.229 718.4 359.879 718.4C360.539 718.4 361.169 718.4 361.769 718.37L375.189 718.08C406.429 717.34 436.129 706.86 463.439 686.96C477.429 676.77 491.099 663.9 504.049 648.71C508.869 643.09 513.679 637.03 518.379 630.66C521.769 621.48 524.029 614.39 525.099 609.6C525.229 609 525.279 608.41 525.239 607.82C524.509 596 518.149 586.34 505.809 578.26ZM396.159 653.34C395.009 659.64 393.959 665.96 393.009 672.26C390.899 682 388.419 686.87 385.559 686.87C382.109 686.87 375.619 684.39 366.069 679.42C357.289 674.83 352.559 671.97 351.879 670.82C351.219 669.68 350.699 667.38 350.309 663.94C352.409 657.45 354.989 648.09 358.049 635.87C358.619 632.23 359.669 630.52 361.199 630.7L366.069 633.86C371.799 636.15 380.399 640.17 391.859 645.89C393.189 646.27 394.449 646.75 395.589 647.33C396.729 647.89 396.919 649.91 396.159 653.34ZM375.139 397.6C373.159 397.6 371.199 397.6 369.269 397.64C281.819 402.03 238.209 407.19 238.399 413.11V414.54L320.809 465.54C364.339 432.11 398.189 410.62 422.379 401.06V399.34C405.069 398.18 389.329 397.6 375.139 397.6Z" fill="#446784"/>
<path d="M474.988 257.24L475.008 257.56C475.258 257.27 475.278 257.14 474.988 257.24Z" fill="#FCFCFC"/>
</svg>
