<svg width="151" height="77" viewBox="0 0 151 77" fill="none" xmlns="http://www.w3.org/2000/svg">
<path d="M137.671 4.70692C137.627 3.70196 138.174 3.14679 139.312 3.04047C139.367 3.03593 139.423 3.0332 139.481 3.0332C140.328 3.0332 141.399 3.6002 142.694 4.736C142.774 4.80597 142.855 4.87775 142.937 4.95317C142.965 4.97861 142.946 5.02495 142.91 5.02495H142.906C142.62 5.00223 142.335 4.99133 142.05 4.99133C141.877 4.99133 141.704 4.99587 141.531 5.00405C140.859 5.06675 140.177 5.14216 139.485 5.22848C139.483 5.22848 139.482 5.22848 139.481 5.22848C139.392 5.23303 139.306 5.23485 139.223 5.23485C138.457 5.23485 137.944 5.06856 137.685 4.73509C137.682 4.73237 137.681 4.73237 137.68 4.72964C137.674 4.72328 137.671 4.71419 137.671 4.70601V4.70692Z" fill="#446784"/>
<path d="M146.112 36.7961C145.945 36.8888 145.78 36.9796 145.616 37.0705C139.594 40.4052 135.497 42.8986 133.324 44.555C133.253 45.8735 133.069 46.534 132.77 46.534C132.261 46.0824 132.005 45.7617 132.005 45.57H131.847C130.986 46.2823 130.3 47.0547 129.79 47.8879L132.954 47.8098C137.226 47.7225 141.093 47.4972 144.557 47.1328C144.669 47.1301 144.78 47.1283 144.89 47.1283C145.137 47.1283 145.38 47.1356 145.616 47.1492C147.122 47.2346 148.395 47.5962 149.434 48.2323C149.876 48.5031 150.276 48.8229 150.634 49.1927C150.743 49.3072 150.849 49.4253 150.948 49.548V10.0638C150.948 5.63688 148.021 1.85965 144.006 0.5721C144.016 0.580278 144.027 0.589368 144.037 0.598454C145.366 1.7388 146.371 3.11812 147.052 4.73642C147.491 5.78045 147.796 6.92443 147.965 8.16837C148.314 10.6908 148.067 13.0078 147.224 15.1213C146.805 15.8746 146.268 16.6751 145.616 17.5238C144.222 19.3356 142.299 21.3655 139.843 23.6117C137.852 25.4344 135.708 27.179 133.341 28.4929C132.094 29.1844 130.232 29.7159 128.534 29.7159C127.695 29.7159 126.895 29.586 126.23 29.2816C124.794 28.6256 123.854 27.2244 123.136 25.8197C122.192 23.9724 121.499 22.0088 120.823 20.0471C120.812 20.0153 120.837 19.9916 120.863 19.9916C120.876 19.9916 120.888 19.998 120.897 20.0116C121.702 21.3319 122.543 22.6476 123.677 23.6962C124.804 24.7393 126.278 25.4989 127.802 25.4989C127.935 25.4989 128.069 25.4926 128.203 25.4808C129.298 25.3826 130.743 25.2463 131.731 24.762C133.238 24.0224 134.61 23.091 135.978 22.1578C137.445 21.1574 138.816 19.9826 140.141 18.8031C142.626 16.5969 144.45 14.8106 145.616 13.444C146.353 12.5807 146.825 11.8847 147.034 11.3568C147.039 11.3459 147.039 11.335 147.034 11.325C146.87 10.8916 146.397 10.4954 145.616 10.1374C145.501 10.0847 145.38 10.0329 145.252 9.98111C144.405 9.64491 143.511 9.47681 142.571 9.47681C142.181 9.47681 141.785 9.50589 141.38 9.56313C140.285 9.71033 139.604 9.79666 139.335 9.8221C139.108 9.843 138.889 9.8539 138.679 9.8539C137.343 9.8539 136.374 9.42138 135.774 8.55635C135.414 8.03479 135.187 7.35604 135.093 6.52099C135.021 5.90584 135.009 5.31159 135.056 4.73642C135.162 3.38526 135.592 2.14406 136.342 1.01189C136.568 0.672053 136.8 0.368568 137.041 0.0996094H103.152V66.5315C103.152 68.2497 103.593 69.8707 104.369 71.2855C105.093 71.2709 106.085 70.9838 107.349 70.4259C107.994 70.1406 108.708 69.7862 109.492 69.3601C110.581 68.7695 111.805 68.0425 113.165 67.1793C113.437 67.0058 113.715 66.8277 113.999 66.6441C114.452 66.347 114.887 66.0626 115.299 65.79C118.821 63.4657 120.881 62.0137 121.477 61.434C121.764 61.1823 121.909 60.9388 121.909 60.7052C121.909 60.3636 121.575 59.9483 120.91 59.4631C120.1 58.8516 118.795 58.1138 116.995 57.2497C115.034 56.3319 113.575 55.5487 112.622 54.9008C112.12 54.5574 111.635 54.1875 111.168 53.7923C111.025 53.6714 110.883 53.5479 110.743 53.4216C109.788 52.5611 108.911 51.587 108.114 50.5012C107.978 50.3349 107.724 50.1323 107.349 49.8915C107.293 49.856 107.234 49.8188 107.173 49.7806C107.154 49.7688 107.135 49.757 107.115 49.7452C106.827 49.5834 106.683 49.2045 106.683 48.6121V46.3169C106.683 46.1197 106.71 45.9752 106.763 45.8844C106.786 45.8625 106.82 45.8516 106.864 45.8516C106.937 45.8516 107.04 45.8816 107.173 45.9416C107.221 45.9634 107.274 45.9898 107.331 46.0207L107.349 46.0288L110.743 47.6435L111.168 47.8452L111.246 47.8825C111.407 47.9542 111.551 48.0269 111.677 48.0987C112.307 48.4585 112.894 49.0728 112.732 49.2518C112.669 49.3217 112.528 49.3472 112.328 49.3472C112.043 49.3472 111.638 49.2945 111.168 49.2418C111.031 49.2263 110.889 49.2118 110.743 49.1964C110.556 49.1782 110.363 49.1627 110.166 49.1509C110.351 49.3317 110.543 49.5107 110.743 49.6852C110.881 49.807 111.023 49.9278 111.168 50.0459C112.458 51.1036 114.012 52.0559 115.834 52.9036C118.696 54.2539 120.388 55.1262 120.91 55.5214C122.168 56.3855 122.799 57.8803 122.799 60.0038C122.799 60.4536 122.763 60.8942 122.692 61.3258C122.493 62.4962 122.259 63.324 121.989 63.8092C121.81 64.1508 121.413 64.6015 120.801 65.1594C120.595 65.3466 120.347 65.5565 120.057 65.79C119.562 66.1871 118.95 66.6505 118.217 67.1793C117.339 67.8117 116.29 68.5387 115.069 69.3601C114.579 69.6899 114.059 70.0352 113.513 70.3968C113.206 70.604 112.908 70.8048 112.615 70.9984C110.27 72.5521 108.377 73.6634 106.937 74.3331C106.937 74.3331 106.937 74.3337 106.939 74.3349C108.639 75.6879 110.789 76.4984 113.117 76.4984H150.945C150.945 76.4984 150.948 76.4975 150.948 76.4966V60.7098C150.525 61.4794 150.021 62.2318 149.434 62.9678C148.411 64.2517 147.139 65.4856 145.616 66.6678C145.395 66.8395 145.17 67.0103 144.939 67.1793C144.913 67.1984 144.885 67.2184 144.859 67.2375C143.618 68.1407 142.229 68.8285 140.755 69.2519C139.159 69.7108 137.587 69.958 136.04 69.9925C135.949 69.9952 135.859 69.9952 135.77 69.9952C133.092 69.9952 130.68 69.0566 128.529 67.1793C128.394 67.0621 128.262 66.9413 128.13 66.8159C126.354 64.4025 125.431 61.6511 125.361 58.5627L125.335 57.0007C125.281 55.0907 125.483 53.1544 125.94 51.1936C125.3 51.0545 124.431 50.8519 123.787 50.7002C122.972 50.5066 122.18 50.2231 121.437 49.8351C120.925 49.5671 120.518 49.2999 120.218 49.0328C119.059 47.9052 118.303 46.8112 117.952 45.7526C117.371 44.694 116.827 37.1523 116.317 23.1265C116.123 19.083 115.771 15.6374 115.262 12.7906C114.857 11.1414 114.524 10.2128 114.26 10.0047C114.012 10.0047 113.407 11.1333 112.441 13.3894L112.309 13.4676H112.255C112.167 13.4676 112.124 13.4249 112.124 13.3376C112.124 11.9129 112.529 10.3182 113.337 8.55635C113.447 8.31738 113.564 8.07568 113.688 7.83126C113.906 7.40056 114.22 7.02347 114.608 6.73725C114.689 6.67637 114.74 6.64639 114.761 6.64639H115.077C115.634 6.64639 116.125 7.28243 116.548 8.55635C117.581 11.6594 118.215 18.5469 118.452 29.2198C118.452 29.4043 118.453 29.586 118.454 29.7677C118.454 29.8868 118.456 30.0058 118.456 30.1239C118.502 36.0265 119.011 40.4888 119.982 43.5146C120.531 44.8185 121.484 45.8971 122.838 46.7557C124.467 47.4436 125.983 47.7889 127.387 47.7889C127.485 47.7889 127.583 47.7861 127.681 47.7834C127.681 47.7135 128.507 46.5259 130.16 44.2161V44.0598C128.753 43.431 126.78 42.2125 124.241 40.4025C123.839 40.1163 123.489 39.7601 123.23 39.3412C122.922 38.8387 122.762 38.3117 122.75 37.7593C122.711 36.3536 123.418 35.2214 124.872 34.3618C125.699 33.873 126.624 33.574 127.579 33.4559C129.612 33.2051 132.195 33.0425 135.328 32.9689L141.655 32.8117C141.869 32.8117 143.92 32.819 145.616 32.8244C146.856 32.828 147.906 32.8326 147.906 32.8326L147.911 33.1143C147.826 33.3687 147.84 33.6304 147.801 33.8957C147.518 35.8129 147.861 35.7811 146.112 36.7961ZM125.331 13.8083C125.798 13.4321 126.989 14.0455 127.402 14.358C128.542 15.2185 129.013 16.3661 129.665 17.5646C129.729 17.6828 129.733 17.8491 129.926 17.8372C129.941 16.2998 129.411 13.0741 130.461 11.8484C131.242 10.9361 132.596 11.9401 132.727 12.8097C132.758 13.0196 132.698 13.9701 132.437 13.971C131.95 13.9728 131.193 12.6107 130.703 13.9283C130.005 15.8092 131.234 18.6214 130.25 20.4678C129.858 20.2124 129.818 19.6936 129.579 19.2611C129.267 18.6959 127.715 16.437 127.234 16.1917C127.122 16.1344 127.088 16.0981 126.958 16.1726C126.673 17.0658 125.003 16.2517 124.787 15.7437C124.685 15.502 125.133 13.9691 125.331 13.8083ZM141.616 26.6702C140.577 27.4271 139.255 28.4302 137.659 29.686C137.207 30.0412 136.732 30.4183 136.236 30.8145C136.093 30.9281 135.949 31.0435 135.804 31.1598L135.775 30.8318L135.715 30.1366C135.873 30.0113 136.043 29.875 136.227 29.7287C136.334 29.6442 136.446 29.556 136.562 29.4652C136.562 29.4652 136.563 29.4646 136.564 29.4633L141.551 25.6434C142.26 25.1255 143.154 24.4903 144.229 23.7371C144.817 23.3254 145.461 22.8775 146.158 22.3959L146.227 23.4145C146.077 23.4672 145.004 24.205 141.616 26.6702ZM149.026 52.5838C148.459 52.2131 147.749 51.8796 146.912 51.5925L145.561 51.4943L144.187 51.3953C138.057 51.826 133.849 52.0704 131.68 52.1222H131.663C131.371 52.1222 129.759 52.1004 128.275 52.0786C127.577 54.0103 127.247 55.894 127.293 57.6831C127.375 61.0578 128.751 63.2885 131.498 64.5061C132.324 64.8714 133.237 65.1113 134.209 65.2167C134.82 65.283 135.344 65.3175 135.766 65.3175C135.826 65.3175 135.884 65.3175 135.938 65.3148L137.157 65.2884C139.996 65.2212 142.695 64.2689 145.176 62.4607C146.447 61.5348 147.69 60.3654 148.866 58.9852C149.304 58.4745 149.741 57.9239 150.168 57.3451C150.476 56.5109 150.682 55.8667 150.779 55.4315C150.791 55.377 150.795 55.3233 150.792 55.2697C150.725 54.1957 150.147 53.318 149.026 52.5838ZM139.063 59.4059C138.958 59.9783 138.863 60.5526 138.777 61.125C138.585 62.0101 138.36 62.4526 138.1 62.4526C137.786 62.4526 137.197 62.2272 136.329 61.7756C135.531 61.3586 135.101 61.0987 135.039 60.9942C134.979 60.8906 134.932 60.6816 134.897 60.369C135.088 59.7793 135.322 58.9288 135.6 57.8185C135.652 57.4877 135.747 57.3324 135.886 57.3487L136.329 57.6358C136.849 57.8439 137.631 58.2092 138.672 58.7289C138.793 58.7635 138.907 58.8071 139.011 58.8598C139.115 58.9107 139.132 59.0942 139.063 59.4059ZM137.153 36.1682C136.973 36.1682 136.795 36.1682 136.62 36.1719C128.673 36.5708 124.711 37.0396 124.728 37.5775V37.7075L132.216 42.3416C136.172 39.304 139.247 37.3513 141.445 36.4826V36.3263C139.872 36.2209 138.442 36.1682 137.153 36.1682Z" fill="#446784"/>
<path d="M146.226 23.4142L146.227 23.4432C146.25 23.4169 146.252 23.4051 146.226 23.4142Z" fill="#FCFCFC"/>
<path d="M5.1798 24.5957L6.00575 25.4216L6.99436 24.433L6.00575 23.4453L5.1798 24.2713L4.35384 23.4453L3.36523 24.433L4.35384 25.4216L5.1798 24.5957Z" fill="#253745"/>
<path d="M22.8621 30.1521C22.7485 29.7414 22.5623 29.2989 22.3033 28.8237H21.9789L21.3474 30.233C21.66 30.6219 21.9226 31.0081 22.1325 31.3915C22.3433 31.7749 22.4814 32.1066 22.5459 32.3874C22.276 32.5064 21.9489 32.5982 21.5655 32.6627C21.182 32.7272 20.7695 32.7599 20.3261 32.7599H7.69049C7.12895 32.7599 6.73459 32.66 6.50834 32.4601C6.28118 32.2602 6.1676 31.9122 6.1676 31.4151V26.0205H5.84412L5.26077 27.2844L3.44621 28.4511C2.75473 28.8936 2.26588 29.3334 1.98057 29.7714C1.69435 30.2084 1.55078 30.6646 1.55078 31.1398C1.55078 31.7014 1.71525 32.1284 2.04508 32.4201C2.37401 32.7118 2.85196 32.8571 3.47892 32.8571C4.00775 32.8571 4.47752 32.7545 4.88823 32.5491L5.34164 31.4642C5.41706 32.1657 5.51156 32.7254 5.62514 33.1406C5.73872 33.5568 5.92772 33.853 6.19213 34.032C6.45655 34.2101 6.84817 34.2992 7.36701 34.2992H20.0026C20.4987 34.2992 20.9749 34.2501 21.4283 34.1529C21.8817 34.0556 22.2597 33.9212 22.5623 33.7485C22.7131 33.4023 22.8294 33.0271 22.9103 32.6218C22.9911 32.2175 23.032 31.8149 23.032 31.4151C23.032 30.9835 22.9748 30.5619 22.8621 30.1521ZM4.60564 31.2289C4.34032 31.2888 4.01957 31.3179 3.64157 31.3179C3.18816 31.3179 2.82379 31.2398 2.54847 31.0835C2.27315 30.9272 2.13504 30.7191 2.13504 30.4592C2.13504 30.2866 2.21863 30.1167 2.38583 29.9495C2.55302 29.7823 2.82107 29.6278 3.18816 29.4879L5.06723 28.7746L5.29349 31.0108C5.09994 31.0971 4.87006 31.1698 4.60564 31.2289Z" fill="#253745"/>
<path d="M27.2122 32.3962C27.3094 32.6824 27.3576 32.9768 27.3576 33.2794C27.3576 34.0354 27.0014 34.6778 26.2881 35.2075C25.5858 35.7291 24.5726 36.0607 23.2514 36.2043L22.4491 35.402L21.6232 36.2279L20.7972 35.402L19.8086 36.3906L20.7972 37.3783L21.6232 36.5523L22.4491 37.3783L23.2605 36.5668L26.0128 37.8644C26.6498 36.8921 27.1141 35.9417 27.4058 35.0131C27.6974 34.0844 27.8428 33.2094 27.8428 32.3889C27.8428 31.8165 27.7456 31.2222 27.5511 30.6071C27.3567 29.991 27.0868 29.3976 26.7415 28.8252H26.4181L25.7866 30.2345C26.1755 30.6988 26.4853 31.1041 26.7179 31.4494C26.9496 31.7946 27.115 32.1109 27.2122 32.3971V32.3962Z" fill="#253745"/>
<path d="M40.2521 25.9248L41.078 26.7507L42.0666 25.7621L41.078 24.7744L40.2521 25.6004L39.4261 24.7744L38.4375 25.7621L39.4261 26.7507L40.2521 25.9248Z" fill="#253745"/>
<path d="M59.1412 23.4615V22.2148H58.8168C57.791 22.7655 57.5047 23.516 57.9582 24.4665L58.1853 32.518C57.6665 32.6797 57.2076 32.7606 56.8078 32.7606H53.892C53.0824 32.7606 52.4336 32.6961 51.9484 32.5661C52.3046 32.2208 52.5826 31.8347 52.7825 31.4076C52.9824 30.9814 53.0824 30.5253 53.0824 30.0392C53.0824 29.4994 52.8797 29.0506 52.4745 28.6944C52.0692 28.3382 51.4886 28.1601 50.7335 28.1601C50.3982 28.1601 50.0502 28.1983 49.6886 28.2737C49.326 28.3491 48.9671 28.4463 48.6109 28.5644L47.785 30.7352C48.0003 30.7788 48.1866 30.857 48.3438 30.9705C48.5001 31.0841 48.7136 31.2976 48.9835 31.6102L49.8094 32.5334C49.0216 32.6851 48.1357 32.7606 47.1526 32.7606H43.2654C42.6384 32.7606 42.0442 32.7124 41.4826 32.6152C41.7634 32.3126 41.9796 31.9855 42.1314 31.6348C42.2822 31.284 42.3576 30.9088 42.3576 30.5089C42.3576 30.0555 42.2659 29.6257 42.0823 29.2205C41.8988 28.8161 41.6589 28.4863 41.3618 28.2328C41.0646 27.9793 40.7484 27.8521 40.4141 27.8521C40.1442 27.8521 39.8716 27.9493 39.5954 28.1437C39.32 28.3382 39.0665 28.5944 38.8339 28.9134C38.6022 29.2314 38.4159 29.5803 38.2751 29.9583C38.1352 30.3363 38.0652 30.7088 38.0652 31.0759C38.0652 31.6702 38.2697 32.2099 38.6804 32.6961C38.2051 32.7388 37.6863 32.7606 37.1257 32.7606H32.2653C31.7038 32.7606 31.3094 32.6606 31.0832 32.4607C30.856 32.2608 30.7424 31.9128 30.7424 31.4158V22.2148H30.419L29.5439 24.1103L29.7548 31.4158C29.7757 32.14 29.8602 32.7124 30.0055 33.1331C30.1509 33.5547 30.3808 33.8537 30.6943 34.0327C31.0069 34.2108 31.423 34.2998 31.9409 34.2998H36.8013C37.3955 34.2998 37.9598 34.2453 38.4941 34.1372C39.0284 34.0299 39.5172 33.8727 39.9606 33.6674C40.3704 33.8727 40.8266 34.0299 41.3291 34.1372C41.8315 34.2453 42.3685 34.2998 42.941 34.2998H46.8291C47.5633 34.2998 48.2629 34.2244 48.9271 34.0726C49.5914 33.9218 50.1929 33.7056 50.7335 33.4248C51.1215 33.7056 51.554 33.9218 52.0292 34.0726C52.5045 34.2244 53.0169 34.2998 53.5685 34.2998H56.4843C56.8732 34.2998 57.2585 34.248 57.6419 34.1453C58.0254 34.0436 58.358 33.9164 58.6387 33.7646C58.8114 33.4302 58.9386 33.0577 59.0194 32.647C59.1003 32.2372 59.1412 31.8265 59.1412 31.4158V25.3415L60.048 24.6446L59.1412 23.4615ZM40.5767 32.388C39.9506 32.1936 39.4563 31.9346 39.0947 31.6102C38.7322 31.2867 38.5513 30.9296 38.5513 30.5417C38.5513 30.2173 38.684 29.9447 38.9484 29.723C39.2128 29.5022 39.5454 29.3913 39.9452 29.3913C40.2796 29.3913 40.5931 29.4804 40.8847 29.6585C41.1764 29.8366 41.4136 30.0692 41.5971 30.3554C41.7807 30.6416 41.8724 30.9515 41.8724 31.2867C41.8724 31.762 41.4408 32.1291 40.5767 32.388ZM50.7989 31.9019L49.8594 30.8651C49.4596 30.4226 49.1243 30.1637 48.8544 30.0873V30.0228C49.1352 29.9147 49.4378 29.8338 49.7622 29.7802C50.0857 29.7257 50.3991 29.6984 50.7017 29.6984C51.2415 29.6984 51.6785 29.7884 52.0138 29.9665C52.3482 30.1446 52.5163 30.379 52.5163 30.6707C52.5163 30.9624 52.3918 31.2513 52.1437 31.5048C51.8948 31.7592 51.544 31.9773 51.0906 32.1609C50.9825 32.0854 50.8853 31.9991 50.7989 31.9019Z" fill="#253745"/>
<path d="M62.0575 34.2998L62.7053 31.9183V22.2148H62.3819L61.5068 24.1103L61.734 34.2998H62.0575Z" fill="#253745"/>
<path d="M70.5785 34.3322C71.0974 34.1923 71.5181 34.0033 71.8424 33.7652C71.9933 33.3009 72.0987 32.8929 72.1587 32.5422C72.2177 32.1915 72.2477 31.8534 72.2477 31.53C72.2477 31.1411 72.1668 30.7422 72.0051 30.3315C71.8434 29.9217 71.5699 29.4383 71.1873 28.8813C70.8039 28.3252 70.2823 27.6473 69.6244 26.8486H69.3001L68.6686 28.2579C69.4891 29.0575 70.1206 29.7163 70.564 30.2342C71.0065 30.7531 71.3145 31.1847 71.4872 31.53C71.6598 31.8753 71.757 32.1996 71.7788 32.5022C71.5517 32.6212 71.2337 32.7348 70.823 32.842C70.4122 32.9502 69.8889 33.0038 69.2519 33.0038C68.6904 33.0038 68.266 32.9656 67.9798 32.8902C67.6936 32.8148 67.5019 32.6794 67.4046 32.485C67.3074 32.2905 67.2592 32.0152 67.2592 31.659H66.9349C66.8703 31.9507 66.824 32.1915 66.7967 32.3795C66.7695 32.5685 66.7559 32.733 66.7559 32.8738C66.7559 33.4463 66.9312 33.8679 67.282 34.1378C67.6327 34.4076 68.1806 34.543 68.9266 34.543C69.51 34.543 70.0606 34.4731 70.5794 34.3322H70.5785Z" fill="#253745"/>
<path d="M81.2067 34.2999H83.1503C83.4638 34.2999 83.7872 34.2654 84.1225 34.1945C84.4569 34.1246 84.8485 34.0083 85.2974 33.8465C85.7454 33.6848 86.2824 33.4685 86.9093 33.1987C88.7239 32.3891 90.4676 31.9838 92.1422 31.9838H92.2876L92.5956 30.4446H91.786C91.5162 30.4446 91.2408 30.4119 90.9601 30.3473C90.6793 30.2828 90.3495 30.1665 89.9715 29.9993C89.5935 29.8321 89.1128 29.6077 88.5295 29.3269C87.7844 28.9598 87.1956 28.69 86.764 28.5173C86.3323 28.3447 85.9589 28.2584 85.6463 28.2584C85.182 28.2584 84.8122 28.3992 84.5369 28.68C84.2615 28.9608 84.1234 29.4305 84.1234 30.0893C84.1234 30.3055 84.1398 30.5427 84.1725 30.8017H84.4969C84.5614 30.132 84.934 29.7976 85.6145 29.7976C85.7981 29.7976 86.0334 29.8385 86.3196 29.9194C86.6058 30.0002 87.0138 30.1647 87.5427 30.4137C88.1369 30.6835 88.6412 30.9107 89.0574 31.0942C89.4726 31.2778 89.8533 31.4186 90.1995 31.515V31.5795C89.6271 31.6231 89.0765 31.7012 88.5467 31.8148C88.017 31.9284 87.4345 32.0656 86.7967 32.2282C86.246 32.3582 85.7872 32.4636 85.4201 32.5444C85.053 32.6253 84.7204 32.6826 84.4242 32.7144C84.1271 32.7471 83.8109 32.7634 83.4765 32.7634H76.6726C76.111 32.7634 75.7167 32.6635 75.4904 32.4636C75.2633 32.2637 75.1506 31.9157 75.1506 31.4186V22.2168H74.8262L73.9512 24.1122L74.162 31.4186C74.1838 32.1419 74.2674 32.7144 74.4128 33.136C74.5581 33.5576 74.788 33.8565 75.1015 34.0346C75.415 34.2127 75.8302 34.3018 76.3491 34.3018H78.2927H81.2085L81.2067 34.2999Z" fill="#253745"/>
<path d="M88.4149 34.1056L87.4268 35.0938L88.4149 36.0819L89.4031 35.0938L88.4149 34.1056Z" fill="#253745"/>
<path d="M97.9739 30.0714C97.7685 29.5199 97.4959 29.0801 97.1552 28.7511C96.8154 28.4213 96.4347 28.2568 96.013 28.2568C95.7214 28.2568 95.4406 28.3568 95.1707 28.5567C94.9009 28.7566 94.6546 29.021 94.4338 29.3499C94.2121 29.6798 94.0395 30.0441 93.915 30.4439C93.7914 30.8428 93.7287 31.2481 93.7287 31.6588C93.7287 32.2849 93.9077 32.7873 94.2639 33.1653C94.6201 33.5433 95.128 33.7323 95.7868 33.7323C96.0567 33.7323 96.2993 33.7105 96.5155 33.6669C96.7318 33.6242 96.958 33.5433 97.1961 33.4243L97.7467 32.1286C97.7794 32.323 97.7949 32.5175 97.7949 32.7119C97.7949 33.6733 97.3851 34.4365 96.5637 35.0035C95.7432 35.5705 94.4202 35.973 92.5947 36.2102V36.5346L95.2516 37.863C97.2715 36.1348 98.281 34.1476 98.281 31.9014C98.281 31.2317 98.1783 30.622 97.9739 30.0714ZM95.9476 32.1931C95.4179 32.1931 94.9972 32.1286 94.6837 31.9986C94.3702 31.8696 94.2139 31.637 94.2139 31.3017C94.2139 31.0427 94.2793 30.8001 94.4084 30.573C94.5383 30.3467 94.711 30.1604 94.9272 30.0142C95.1426 29.8688 95.3752 29.7952 95.6232 29.7952C96.0776 29.7952 96.4955 29.996 96.879 30.3949C97.2624 30.7947 97.5296 31.2808 97.6813 31.8532C97.3024 32.0795 96.7254 32.1931 95.9476 32.1931Z" fill="#253745"/>
<path d="M12.6461 40.1953H9.9738V40.3734L11.295 40.9368L9.55855 46.8902L7.58407 40.507H6.98982L5.02987 46.8757L3.1299 40.4325H4.52557V40.1953H0.948242V40.4325H1.82327L4.12486 48.1968H4.8963L6.79718 42.0953L8.68262 48.1968H9.43952L11.6066 40.9522L12.6461 40.3734V40.1953Z" fill="#253745"/>
<path d="M17.1888 45.2417C17.2034 45.0936 17.2034 44.96 17.2034 44.8265C17.2034 43.3563 16.4465 42.4658 14.9172 42.4658C13.388 42.4658 12.2158 43.6979 12.2158 45.4643C12.2158 47.2307 13.2399 48.3148 14.9027 48.3148C15.8967 48.3148 16.7136 47.825 17.0843 47.1426L17.0107 47.0826C16.5355 47.5433 15.9858 47.7505 15.407 47.7505C14.2939 47.7505 13.4034 46.9936 13.4034 45.3462V45.2417H17.1888ZM14.9481 42.6439C15.7196 42.6439 16.0766 43.4163 16.0766 44.6929V44.9155L13.4043 45.0491C13.4779 43.5644 14.0576 42.6439 14.9481 42.6439Z" fill="#253745"/>
<path d="M23.1117 45.2417C23.1262 45.0936 23.1262 44.96 23.1262 44.8265C23.1262 43.3563 22.3693 42.4658 20.8401 42.4658C19.3108 42.4658 18.1387 43.6979 18.1387 45.4643C18.1387 47.2307 19.1627 48.3148 20.8255 48.3148C21.8196 48.3148 22.6365 47.825 23.0072 47.1426L22.9336 47.0826C22.4584 47.5433 21.9086 47.7505 21.3298 47.7505C20.2167 47.7505 19.3263 46.9936 19.3263 45.3462V45.2417H23.1117ZM20.8701 42.6439C21.6415 42.6439 21.9977 43.4163 21.9977 44.6929V44.9155L19.3263 45.0491C19.3999 43.5644 19.9787 42.6439 20.8701 42.6439Z" fill="#253745"/>
<path d="M24.2998 40.8474L25.2057 41.7388L26.0817 40.8474L25.2057 39.9424L24.2998 40.8474Z" fill="#253745"/>
<path d="M23.8094 43.044H24.6999V48.0025C24.6999 49.4573 24.5218 50.007 23.7939 50.9274L23.883 51.031C24.6999 50.4377 25.2932 49.858 25.6049 49.2201C25.842 48.7603 25.8575 48.3587 25.8575 47.5873V42.5098L23.8085 42.9105V43.044H23.8094Z" fill="#253745"/>
<path d="M31.7673 47.7214V44.5148C31.7673 43.757 31.6337 43.2972 31.3511 43.0001C31.0103 42.6294 30.4161 42.4658 29.5702 42.4658C29.1249 42.4658 28.3671 42.5694 27.8773 42.8075C27.7147 43.1637 27.5657 43.9206 27.5811 44.2922L27.6993 44.3367L28.2935 43.6234C28.8868 42.9111 29.243 42.6439 29.5556 42.6439C30.2825 42.6439 30.6096 43.0446 30.6096 44.1877V45.3753L27.6257 45.5688C27.373 45.925 27.2686 46.3557 27.2686 46.7119C27.2686 47.5724 27.8328 48.3148 29.0204 48.3148C29.7037 48.3148 30.2825 47.9586 30.6096 47.3498C30.6242 47.736 30.7132 48.0476 30.8023 48.2702L32.6132 47.8695V47.7214H31.7673ZM30.6096 47.1871C30.327 47.5724 29.8818 47.7659 29.4657 47.7659C28.9314 47.7659 28.3826 47.3943 28.3826 46.5484C28.3826 46.2221 28.4416 45.9096 28.5606 45.6724H30.6096V47.1871Z" fill="#253745"/>
<path d="M38.3581 47.7219V39.7939L36.2355 40.1656V40.3282H37.2005V43.0006C36.8443 42.6743 36.3691 42.4663 35.7303 42.4663C34.2611 42.4663 33.207 43.6684 33.207 45.5693C33.207 47.1431 33.9194 48.3152 35.4777 48.3152C36.1465 48.3152 36.8734 47.9736 37.2005 47.1876V48.2707L39.2041 47.87V47.7219H38.3581ZM37.2005 46.8905C36.9779 47.4838 36.4872 47.7364 35.9975 47.7364C34.9734 47.7364 34.4682 46.8605 34.4682 45.5393C34.4682 43.7729 35.226 42.8824 36.2056 42.8824C36.5472 42.8824 36.9034 42.986 37.2005 43.2086V46.8905Z" fill="#253745"/>
<path d="M48.751 47.9142L46.5539 44.3814C48.2458 44.1587 49.0182 43.3564 49.0182 42.2133C49.0182 41.0703 48.2167 40.1943 45.8706 40.1943H42.4414V40.4324H43.4954V47.9142H42.4414V48.1522H45.618V47.9142H44.7866V44.4849H45.2328L47.3999 48.1522H49.3889V47.9142H48.751ZM44.7857 44.2623V40.4324H45.8107C47.1464 40.4324 47.6516 41.2193 47.6516 42.2579C47.6516 43.55 46.9683 44.2623 45.2464 44.2623H44.7857Z" fill="#253745"/>
<path d="M54.5707 45.2417C54.5861 45.0936 54.5861 44.96 54.5861 44.8265C54.5861 43.3563 53.8283 42.4658 52.3 42.4658C50.7716 42.4658 49.5977 43.6979 49.5977 45.4643C49.5977 47.2307 50.6217 48.3148 52.2845 48.3148C53.2795 48.3148 54.0954 47.825 54.4671 47.1426L54.3926 47.0826C53.9174 47.5433 53.3685 47.7505 52.7897 47.7505C51.6757 47.7505 50.7853 46.9936 50.7853 45.3462V45.2417H54.5707ZM52.3281 42.6439C53.1005 42.6439 53.4567 43.4163 53.4567 44.6929V44.9155L50.7843 45.0491C50.8589 43.5644 51.4377 42.6439 52.3281 42.6439Z" fill="#253745"/>
<path d="M60.0622 47.7214V44.5148C60.0622 43.757 59.9287 43.2972 59.647 43.0001C59.3053 42.6294 58.712 42.4658 57.8651 42.4658C57.4199 42.4658 56.663 42.5694 56.1732 42.8075C56.0097 43.1637 55.8616 43.9206 55.8761 44.2922L55.9952 44.3367L56.5885 43.6234C57.1827 42.9111 57.5389 42.6439 57.8506 42.6439C58.5784 42.6439 58.9046 43.0446 58.9046 44.1877V45.3753L55.9206 45.5688C55.668 45.925 55.5645 46.3557 55.5645 46.7119C55.5645 47.5724 56.1287 48.3148 57.3163 48.3148C57.9987 48.3148 58.5784 47.9586 58.9046 47.3498C58.9192 47.736 59.0082 48.0476 59.0973 48.2702L60.9091 47.8695V47.7214H60.0622ZM58.9055 47.1871C58.6239 47.5724 58.1777 47.7659 57.7625 47.7659C57.2282 47.7659 56.6785 47.3943 56.6785 46.5484C56.6785 46.2221 56.7384 45.9096 56.8565 45.6724H58.9055V47.1871Z" fill="#253745"/>
<path d="M63.2693 39.7939L61.1758 40.1656V40.3291H62.1117V47.959H61.2358V48.1526H64.1298V47.959H63.2693V39.7939Z" fill="#253745"/>
<path d="M73.6167 45.9553L72.978 47.1283C72.6808 47.7517 72.4882 47.9152 71.9539 47.9152H69.6977V44.2934H71.7022L72.3555 45.4664H72.5336V42.8831H72.3555L71.7022 44.0707H69.6977V40.4334H71.6132C72.192 40.4334 72.3255 40.597 72.6372 41.1167L73.2315 42.1408H73.4241C73.4541 41.651 73.4386 40.7751 73.365 40.1963H67.3525V40.4334H68.4066V47.9152H67.3525V48.1524H73.7067C73.7957 47.5136 73.8403 46.5786 73.8103 45.9553H73.6176H73.6167Z" fill="#253745"/>
<path d="M77.5208 44.871L76.6894 44.5739C76.1251 44.3658 75.7544 44.1732 75.7544 43.6979C75.7544 43.0746 76.2742 42.6439 76.9865 42.6439C77.6099 42.6439 77.907 42.9256 78.2332 43.5053L78.6039 44.1286L78.752 44.1141C78.782 43.5198 78.752 43.1637 78.7075 42.7629C78.3958 42.6148 77.7425 42.4658 77.0147 42.4658C75.8271 42.4658 74.9512 43.1491 74.9512 44.2477C74.9512 44.6193 75.0548 44.9455 75.2928 45.1827C75.53 45.4353 75.8871 45.6134 76.3614 45.7915L77.1483 46.0731C77.8316 46.3257 78.1723 46.5329 78.1723 47.0236C78.1723 47.6324 77.7116 48.1221 76.9402 48.1221C76.2869 48.1221 75.9752 47.825 75.4709 46.9345L75.1447 46.3703L74.9966 46.4002C74.9666 46.9645 74.9966 47.5579 75.0411 47.9586C75.5309 48.1957 76.3032 48.3148 76.912 48.3148C78.1296 48.3148 79.0946 47.5724 79.0946 46.4593C79.0946 46.1031 78.961 45.806 78.7684 45.5834C78.4867 45.2563 78.0115 45.0636 77.5217 44.871H77.5208Z" fill="#253745"/>
<path d="M82.5238 47.7656C82.0486 47.7656 81.6924 47.543 81.6924 46.9042V43.0443H83.4443V42.8517H81.6924V41.3379H81.5589L80.5494 42.7626L79.6289 42.9108V43.0443H80.5348V46.9042C80.5348 47.8392 81.0246 48.3145 81.945 48.3145C82.8064 48.3145 83.3107 47.8838 83.5933 47.4085L83.4897 47.334C83.2226 47.6602 82.851 47.7647 82.5248 47.7647L82.5238 47.7656Z" fill="#253745"/>
<path d="M88.5807 47.7214V44.5148C88.5807 43.757 88.4472 43.2972 88.1646 43.0001C87.8238 42.6294 87.2296 42.4658 86.3836 42.4658C85.9384 42.4658 85.1806 42.5694 84.6908 42.8075C84.5282 43.1637 84.3792 43.9206 84.3946 44.2922L84.5127 44.3367L85.107 43.6234C85.7003 42.9111 86.0565 42.6439 86.3691 42.6439C87.096 42.6439 87.4231 43.0446 87.4231 44.1877V45.3753L84.4391 45.5688C84.1865 45.925 84.082 46.3557 84.082 46.7119C84.082 47.5724 84.6463 48.3148 85.8339 48.3148C86.5172 48.3148 87.096 47.9586 87.4231 47.3498C87.4377 47.736 87.5267 48.0476 87.6157 48.2702L89.4267 47.8695V47.7214H88.5807ZM87.4231 47.1871C87.1405 47.5724 86.6953 47.7659 86.28 47.7659C85.7449 47.7659 85.196 47.3943 85.196 46.5484C85.196 46.2221 85.2551 45.9096 85.3741 45.6724H87.4231V47.1871Z" fill="#253745"/>
<path d="M92.5893 47.7656C92.1141 47.7656 91.7579 47.543 91.7579 46.9042V43.0443H93.5097V42.8517H91.7579V41.3379H91.6243L90.6148 42.7626L89.6943 42.9108V43.0443H90.6003V46.9042C90.6003 47.8392 91.09 48.3145 92.0105 48.3145C92.8719 48.3145 93.3762 47.8838 93.6587 47.4085L93.5552 47.334C93.288 47.6602 92.9164 47.7647 92.5902 47.7647L92.5893 47.7656Z" fill="#253745"/>
<path d="M98.9125 45.2417C98.927 45.0936 98.927 44.96 98.927 44.8265C98.927 43.3563 98.1701 42.4658 96.6408 42.4658C95.1116 42.4658 93.9395 43.6979 93.9395 45.4643C93.9395 47.2307 94.9635 48.3148 96.6263 48.3148C97.6213 48.3148 98.4372 47.825 98.8089 47.1426L98.7344 47.0826C98.2591 47.5433 97.7103 47.7505 97.1315 47.7505C96.0175 47.7505 95.127 46.9936 95.127 45.3462V45.2417H98.9125ZM96.6708 42.6439C97.4432 42.6439 97.7994 43.4163 97.7994 44.6929V44.9155L95.127 45.0491C95.2016 43.5644 95.7804 42.6439 96.6708 42.6439Z" fill="#253745"/>
</svg>
