<svg xmlns="http://www.w3.org/2000/svg" xmlns:xlink="http://www.w3.org/1999/xlink" viewBox="0,0,256,256" width="48px" height="48px" fill-rule="nonzero"><g fill="#446784" fill-rule="nonzero" stroke="none" stroke-width="1" stroke-linecap="butt" stroke-linejoin="miter" stroke-miterlimit="10" stroke-dasharray="" stroke-dashoffset="0" font-family="none" font-weight="none" font-size="none" text-anchor="none" style="mix-blend-mode: normal"><g transform="scale(10.66667,10.66667)"><path d="M6,3c-1.65109,0 -3,1.34891 -3,3v12c0,1.65109 1.34891,3 3,3h12c1.65109,0 3,-1.34891 3,-3v-12c0,-1.65109 -1.34891,-3 -3,-3zM6,4h12c1.11091,0 2,0.88909 2,2v12c0,1.11091 -0.88909,2 -2,2h-12c-1.11091,0 -2,-0.88909 -2,-2v-12c0,-1.11091 0.88909,-2 2,-2zM13.49219,6.99219c-0.13261,0.00207 -0.25896,0.05673 -0.35127,0.15197c-0.0923,0.09523 -0.14299,0.22324 -0.14092,0.35584v6.5c0,1.11091 -0.88909,2 -2,2c-1.11091,0 -2,-0.88909 -2,-2c0,-0.94738 0.65392,-1.73357 1.53125,-1.94531c0.26859,-0.06526 0.43342,-0.3359 0.36816,-0.60449c-0.06526,-0.26859 -0.3359,-0.43342 -0.60449,-0.36816c-1.31867,0.31826 -2.29492,1.50935 -2.29492,2.91797c0,1.65109 1.34891,3 3,3c1.65109,0 3,-1.34891 3,-3v-4.08398c0.64484,0.66469 1.53703,1.08398 2.5,1.08398c0.18032,0.00255 0.34804,-0.09219 0.43894,-0.24794c0.0909,-0.15575 0.0909,-0.34838 0,-0.50413c-0.0909,-0.15575 -0.25863,-0.25049 -0.43894,-0.24794c-1.30509,0 -2.5,-1.14541 -2.5,-2.5c0.00212,-0.13532 -0.0507,-0.26572 -0.1464,-0.36141c-0.0957,-0.0957 -0.22609,-0.14852 -0.36141,-0.1464z"></path></g></g></svg>