<svg xmlns="http://www.w3.org/2000/svg" xmlns:xlink="http://www.w3.org/1999/xlink" viewBox="0,0,256,256" width="48px" height="48px" fill-rule="nonzero"><g fill="#ffffff" fill-rule="nonzero" stroke="none" stroke-width="1" stroke-linecap="butt" stroke-linejoin="miter" stroke-miterlimit="10" stroke-dasharray="" stroke-dashoffset="0" font-family="none" font-weight="none" font-size="none" text-anchor="none" style="mix-blend-mode: normal"><g transform="scale(10.66667,10.66667)"><path d="M4.79297,3l-1.79297,1.79297v14.41406l1.79297,1.79297h14.41406l0.14648,-0.14648l1.64648,-1.64648v-14.41406l-1.79297,-1.79297zM5.20703,4h13.58594l1.20703,1.20703v13.58594l-1.20703,1.20703h-13.58594l-1.20703,-1.20703v-13.58594zM13,7v7c0,1.11091 -0.88909,2 -2,2c-1.11091,0 -2,-0.88909 -2,-2c0,-1.11091 0.88909,-2 2,-2c0.2839,0 0.55237,0.0615 0.80078,0.16992l0.39844,-0.91797c-0.36559,-0.15957 -0.77112,-0.25195 -1.19922,-0.25195c-1.65109,0 -3,1.34891 -3,3c0,1.65109 1.34891,3 3,3c1.65109,0 3,-1.34891 3,-3v-4.19727c0.00603,0.00659 0.00954,0.01494 0.01563,0.02148c0.68567,0.73761 1.71676,1.17578 2.98438,1.17578v-1c-1.04539,0 -1.76588,-0.33258 -2.25195,-0.85547c-0.48607,-0.52289 -0.74805,-1.26657 -0.74805,-2.14453z"></path></g></g></svg>