<?xml version="1.0" encoding="UTF-8"?>
<svg id="Layer_1" data-name="Layer 1" xmlns="http://www.w3.org/2000/svg" viewBox="0 0 2000 2000">
  <defs>
    <style>
      .cls-1 {
        fill: #fcfcfc;
      }

      .cls-2 {
        fill: #446784;
      }

      .cls-3 {
        fill: #253745;
      }
    </style>
  </defs>
  <g>
    <path class="cls-2" d="M1065,813.88l-85.54-52.94v-1.49c-.2-6.14,45.08-11.49,135.85-16.06,2-.03,4.03-.04,6.09-.04,14.72,0,31.07.61,49.03,1.82v1.78c-25.1,9.92-60.24,32.23-105.43,66.93Z"/>
    <path class="cls-2" d="M1257.03,930.88c-6.47-4.24-14.59-8.04-24.15-11.32l-15.42-1.12-15.71-1.13c-70.02,4.92-118.09,7.71-142.87,8.3h-.2c-3.33,0-21.75-.25-38.71-.5-7.97,22.07-11.74,43.58-11.21,64.03.94,38.55,16.65,64.03,48.05,77.94,9.43,4.18,19.85,6.91,30.96,8.12,6.98.76,12.96,1.15,17.79,1.15.68,0,1.34,0,1.97-.03l13.92-.3c32.43-.77,63.26-11.64,91.61-32.31,14.52-10.58,28.7-23.93,42.15-39.7,5-5.84,10-12.13,14.88-18.74,3.52-9.53,5.86-16.88,6.97-21.85.14-.62.19-1.24.15-1.86-.77-12.26-7.37-22.29-20.18-30.68ZM1143.22,1008.82c-1.19,6.54-2.28,13.1-3.28,19.63-2.18,10.12-4.75,15.17-7.73,15.17-3.57,0-10.31-2.57-20.23-7.73-9.11-4.76-14.02-7.73-14.72-8.92-.69-1.2-1.23-3.57-1.64-7.15,2.19-6.74,4.86-16.45,8.04-29.14.6-3.77,1.68-5.55,3.27-5.36l5.05,3.28c5.95,2.38,14.88,6.55,26.78,12.49,1.38.39,2.68.89,3.87,1.49,1.18.58,1.37,2.68.59,6.24Z"/>
    <path class="cls-2" d="M1127.32,383.95c-.5-11.48,5.75-17.82,18.75-19.03.62-.06,1.27-.09,1.92-.09,9.69,0,21.92,6.48,36.72,19.45.91.8,1.83,1.63,2.77,2.49.32.28.11.81-.31.81h-.04c-3.28-.25-6.53-.38-9.78-.38-1.98,0-3.96.06-5.93.15-7.68.71-15.48,1.57-23.38,2.56-.01,0-.03.01-.05.01-1,.05-1.99.07-2.94.07-8.75,0-14.61-1.9-17.57-5.71-.03-.02-.04-.03-.06-.05-.06-.08-.1-.18-.1-.28Z"/>
    <path class="cls-2" d="M1223.75,750.53c-1.91,1.05-3.8,2.09-5.67,3.13-68.8,38.1-115.6,66.58-140.42,85.5-.82,15.07-2.92,22.61-6.33,22.61-5.82-5.16-8.74-8.82-8.74-11.01h-1.8c-9.84,8.13-17.67,16.96-23.5,26.47l36.14-.89c48.81-.99,92.98-3.57,132.54-7.73,1.29-.03,2.56-.05,3.82-.05,2.82,0,5.59.08,8.29.24,17.21.98,31.74,5.1,43.62,12.37,5.04,3.09,9.61,6.75,13.7,10.97,1.26,1.31,2.46,2.66,3.59,4.06v-451.05c0-50.59-33.44-93.74-79.32-108.45.12.11.25.21.37.32,15.19,13.02,26.67,28.77,34.44,47.26,5.03,11.93,8.51,25,10.44,39.21,3.98,28.81,1.16,55.29-8.46,79.43-4.8,8.6-10.92,17.75-18.38,27.44-15.92,20.71-37.9,43.89-65.95,69.55-22.75,20.82-47.23,40.76-74.28,55.77-14.25,7.9-35.52,13.96-54.91,13.96-9.59,0-18.72-1.48-26.32-4.95-16.4-7.5-27.14-23.5-35.34-39.56-10.79-21.1-18.71-43.53-26.43-65.94-.12-.36.16-.63.45-.63.15,0,.29.07.4.22,9.2,15.09,18.8,30.12,31.75,42.09,12.88,11.92,29.72,20.6,47.13,20.6,1.52,0,3.04-.07,4.57-.2,12.51-1.13,29.03-2.69,40.31-8.22,17.22-8.44,32.89-19.09,48.52-29.74,16.76-11.44,32.41-24.86,47.55-38.33,28.39-25.21,49.24-45.61,62.55-61.22,8.42-9.86,13.82-17.81,16.21-23.85.04-.12.04-.24,0-.36-1.89-4.95-7.29-9.47-16.21-13.57-1.31-.6-2.7-1.19-4.16-1.78-9.68-3.84-19.89-5.76-30.62-5.76-4.45,0-8.98.33-13.61.98-12.51,1.69-20.29,2.67-23.35,2.96-2.61.24-5.1.37-7.5.37-15.27,0-26.34-4.95-33.19-14.83-4.12-5.96-6.72-13.71-7.79-23.25-.81-7.02-.95-13.82-.42-20.39,1.21-15.43,6.13-29.61,14.7-42.55,2.57-3.88,5.23-7.35,7.98-10.42h-387.14v758.91c0,19.63,5.04,38.15,13.9,54.31,8.27-.16,19.61-3.44,34.05-9.82,7.36-3.26,15.52-7.31,24.48-12.18,12.44-6.75,26.42-15.05,41.96-24.91,3.11-1.98,6.28-4.02,9.52-6.12,5.18-3.38,10.14-6.64,14.86-9.75,40.23-26.55,63.76-43.14,70.57-49.76,3.28-2.88,4.94-5.66,4.94-8.33,0-3.91-3.82-8.64-11.42-14.19-9.25-6.98-24.16-15.42-44.72-25.28-22.41-10.48-39.07-19.43-49.95-26.83-5.74-3.93-11.28-8.15-16.61-12.67-1.65-1.38-3.27-2.8-4.86-4.24-10.91-9.83-20.92-20.95-30.03-33.35-1.55-1.9-4.46-4.22-8.74-6.97-.65-.41-1.31-.84-2.02-1.27-.22-.13-.43-.26-.66-.4-3.29-1.85-4.93-6.18-4.93-12.95v-26.22c0-2.26.31-3.91.92-4.94.25-.24.63-.38,1.15-.38.82,0,2,.35,3.52,1.03.55.25,1.16.55,1.81.9l.21.1,38.77,18.44,4.86,2.31.88.43c1.85.82,3.49,1.65,4.93,2.47,7.19,4.11,13.9,11.12,12.05,13.17-.73.79-2.34,1.09-4.62,1.09-3.25,0-7.88-.6-13.24-1.2-1.57-.18-3.2-.35-4.86-.52-2.13-.21-4.34-.39-6.6-.52,2.12,2.07,4.32,4.11,6.6,6.1,1.58,1.39,3.2,2.77,4.86,4.13,14.72,12.08,32.49,22.95,53.3,32.64,32.68,15.42,52.02,25.39,57.98,29.91,14.38,9.87,21.59,26.94,21.59,51.2,0,5.13-.42,10.17-1.23,15.11-2.27,13.36-4.95,22.81-8.02,28.36-2.06,3.9-6.59,9.05-13.58,15.42-2.36,2.14-5.19,4.54-8.5,7.21-5.65,4.54-12.65,9.83-21.03,15.87-10.02,7.22-22,15.53-35.95,24.91-5.61,3.77-11.54,7.72-17.78,11.84-3.5,2.37-6.92,4.67-10.26,6.87-26.8,17.76-48.42,30.46-64.88,38.11.01,0,.02,0,.03.02,19.43,15.45,43.99,24.71,70.59,24.71h432.14s.03,0,.03-.03v-180.34c-4.82,8.79-10.59,17.39-17.29,25.8-11.69,14.66-26.22,28.76-43.62,42.27-2.52,1.96-5.09,3.91-7.74,5.84-.3.22-.6.44-.91.66-14.17,10.32-30.03,18.18-46.88,23.02-18.24,5.24-36.19,8.06-53.87,8.45-1.04.04-2.06.04-3.08.04-30.59,0-58.15-10.72-82.72-32.17-1.54-1.34-3.06-2.72-4.56-4.15-20.29-27.57-30.83-59-31.63-94.29l-.3-17.84c-.61-21.82,1.7-43.93,6.92-66.33-7.32-1.59-17.25-3.91-24.6-5.64-9.31-2.21-18.36-5.46-26.85-9.89-5.85-3.05-10.49-6.11-13.91-9.16-13.25-12.88-21.88-25.38-25.9-37.48-6.64-12.09-12.86-98.24-18.68-258.47-2.21-46.19-6.24-85.55-12.05-118.08-4.62-18.84-8.43-29.44-11.45-31.82-2.82,0-9.74,12.89-20.78,38.67l-1.51.89h-.6c-1.01,0-1.51-.5-1.51-1.49,0-16.28,4.63-34.49,13.86-54.62,1.26-2.73,2.59-5.49,4.01-8.29,2.49-4.91,6.07-9.22,10.51-12.49.93-.69,1.52-1.04,1.75-1.04h3.62c6.36,0,11.96,7.27,16.79,21.82,11.8,35.45,19.05,114.14,21.75,236.06,0,2.1.01,4.19.03,6.26,0,1.36,0,2.72,0,4.07.54,67.42,6.35,118.41,17.44,152.96,6.27,14.9,17.17,27.23,32.63,37.04,18.61,7.85,35.93,11.79,51.96,11.79,1.12,0,2.25-.02,3.36-.06,0-.79,9.45-14.36,28.32-40.75v-1.78c-16.07-7.18-38.62-21.11-67.62-41.78-4.58-3.27-8.59-7.34-11.54-12.13-3.53-5.73-5.36-11.75-5.49-18.07-.45-16.06,7.64-28.99,24.24-38.81,9.45-5.59,20.03-9,30.92-10.35,23.23-2.86,52.74-4.72,88.53-5.56l72.29-1.79c2.44,0,25.87.07,45.24.13,14.17.05,26.15.1,26.15.1l.07,3.22c-.98,2.91-.81,5.89-1.25,8.92-3.24,21.9.68,21.55-19.3,33.14ZM986.35,487.92c5.33-4.3,18.94,2.71,23.66,6.28,13.01,9.83,18.4,22.94,25.85,36.63.73,1.35.78,3.25,2.97,3.11.19-17.55-5.86-54.41,6.12-68.41,8.93-10.42,24.39,1.04,25.89,10.98.35,2.4-.33,13.25-3.32,13.27-5.56.02-14.21-15.54-19.8-.49-7.98,21.49,6.06,53.61-5.18,74.7-4.48-2.91-4.93-8.84-7.66-13.78-3.56-6.46-21.3-32.26-26.79-35.06-1.27-.65-1.67-1.07-3.16-.22-3.26,10.2-22.32.9-24.79-4.9-1.17-2.76,3.95-20.27,6.21-22.11ZM1172.38,634.86c-11.88,8.64-26.97,20.1-45.2,34.44-5.16,4.06-10.6,8.37-16.27,12.9-1.63,1.29-3.28,2.61-4.93,3.94l-.33-3.75-.68-7.93c1.8-1.44,3.73-3,5.84-4.67,1.23-.97,2.5-1.97,3.84-3.01t0-.02l56.97-43.64c8.11-5.91,18.31-13.17,30.59-21.78,6.73-4.7,14.07-9.81,22.05-15.32l.77,11.64c-1.7.6-13.95,9.03-52.66,37.2Z"/>
    <path class="cls-1" d="M1225.05,597.66l.03.33c.26-.3.27-.43-.03-.33Z"/>
  </g>
  <g>
    <polygon class="cls-3" points="383.34 1321.83 394.72 1333.21 408.34 1319.59 394.72 1305.98 383.34 1317.36 371.96 1305.98 358.34 1319.59 371.96 1333.21 383.34 1321.83"/>
    <path class="cls-3" d="M626.95,1398.38c-1.56-5.65-4.13-11.75-7.7-18.3h-4.46l-8.71,19.42c4.32,5.35,7.93,10.67,10.83,15.95,2.9,5.29,4.8,9.86,5.69,13.73-3.72,1.64-8.22,2.9-13.5,3.79-5.29.9-10.98,1.34-17.08,1.34h-174.09c-7.74,0-13.17-1.37-16.29-4.13-3.13-2.75-4.69-7.55-4.69-14.39v-74.33h-4.46l-8.04,17.41-25,16.07c-9.52,6.11-16.25,12.17-20.2,18.19-3.94,6.03-5.91,12.32-5.91,18.86,0,7.74,2.27,13.62,6.81,17.64,4.53,4.01,11.12,6.02,19.75,6.02,7.29,0,13.76-1.41,19.42-4.24l6.25-14.95c1.04,9.67,2.34,17.37,3.9,23.1,1.57,5.73,4.17,9.82,7.82,12.27,3.64,2.46,9.03,3.69,16.18,3.69h174.09c6.84,0,13.39-.67,19.64-2.01s11.46-3.2,15.62-5.58c2.09-4.76,3.69-9.93,4.8-15.51,1.12-5.58,1.68-11.12,1.68-16.63,0-5.95-.78-11.75-2.35-17.41ZM375.41,1413.22c-3.65.82-8.07,1.23-13.28,1.23-6.25,0-11.27-1.08-15.06-3.24-3.8-2.15-5.69-5.02-5.69-8.59,0-2.38,1.15-4.72,3.45-7.03,2.31-2.31,5.99-4.43,11.05-6.36l25.89-9.82,3.13,30.8c-2.68,1.19-5.84,2.2-9.49,3.01Z"/>
    <path class="cls-3" d="M686.88,1429.29c1.34,3.94,2.01,8,2.01,12.16,0,10.42-4.91,19.27-14.73,26.56-9.68,7.18-23.64,11.75-41.84,13.74l-11.06-11.06-11.38,11.38-11.38-11.38-13.62,13.62,13.62,13.61,11.38-11.38,11.38,11.38,11.18-11.18,37.93,17.87c8.78-13.39,15.18-26.49,19.19-39.28,4.02-12.8,6.03-24.85,6.03-36.16,0-7.88-1.34-16.07-4.02-24.55-2.68-8.48-6.4-16.66-11.16-24.55h-4.46l-8.7,19.42c5.36,6.4,9.63,11.98,12.83,16.74,3.2,4.76,5.47,9.12,6.81,13.06Z"/>
    <polygon class="cls-3" points="866.56 1340.13 877.94 1351.51 891.55 1337.9 877.94 1324.28 866.56 1335.66 855.17 1324.28 841.56 1337.9 855.17 1351.51 866.56 1340.13"/>
    <path class="cls-3" d="M1126.8,1306.2v-17.19h-4.47c-14.13,7.59-18.08,17.94-11.83,31.03l3.13,110.93c-7.14,2.23-13.47,3.34-18.97,3.34h-40.18c-11.16,0-20.09-.89-26.78-2.67,4.91-4.77,8.74-10.08,11.49-15.96s4.13-12.17,4.13-18.86c0-7.44-2.79-13.62-8.37-18.53-5.58-4.91-13.58-7.36-23.99-7.36-4.62,0-9.41.52-14.4,1.56-4.98,1.04-9.93,2.38-14.84,4.02l-11.38,29.9c2.97.6,5.54,1.68,7.7,3.24,2.15,1.56,5.09,4.5,8.81,8.82l11.39,12.72c-10.87,2.08-23.07,3.12-36.61,3.12h-53.56c-8.63,0-16.82-.67-24.56-2,3.87-4.17,6.85-8.67,8.93-13.51,2.08-4.83,3.13-10,3.13-15.51,0-6.25-1.27-12.17-3.8-17.74-2.53-5.58-5.84-10.12-9.93-13.62-4.09-3.49-8.45-5.24-13.06-5.24-3.72,0-7.47,1.34-11.27,4.01-3.79,2.68-7.29,6.22-10.49,10.61-3.2,4.39-5.77,9.18-7.7,14.39s-2.9,10.34-2.9,15.4c0,8.19,2.83,15.62,8.48,22.32-6.55.6-13.69.89-21.42.89h-66.96c-7.74,0-13.17-1.37-16.3-4.13-3.12-2.75-4.68-7.55-4.68-14.39v-126.78h-4.47l-12.05,26.12,2.9,100.66c.3,9.97,1.45,17.85,3.46,23.66,2.01,5.8,5.17,9.93,9.49,12.38,4.31,2.46,10.04,3.69,17.18,3.69h66.96c8.18,0,15.96-.75,23.33-2.24,7.36-1.48,14.09-3.64,20.19-6.47,5.66,2.83,11.95,4.99,18.86,6.47,6.92,1.49,14.32,2.24,22.21,2.24h53.57c5.06,0,10-.26,14.81-.78,4.82-.52,9.51-1.3,14.09-2.35,9.15-2.08,17.45-5.05,24.89-8.93,5.36,3.88,11.31,6.85,17.85,8.93,6.55,2.09,13.62,3.13,21.21,3.13h40.17c5.36,0,10.68-.71,15.96-2.12,5.28-1.42,9.86-3.16,13.73-5.25,2.38-4.61,4.13-9.74,5.24-15.4,1.12-5.65,1.68-11.3,1.68-16.96v-83.7l12.5-9.6-12.5-16.29ZM871.03,1429.18c-8.64-2.68-15.44-6.25-20.43-10.71-4.98-4.47-7.47-9.38-7.47-14.73,0-4.47,1.82-8.22,5.47-11.28,3.64-3.04,8.21-4.57,13.72-4.57,4.61,0,8.93,1.23,12.95,3.68,4.01,2.46,7.29,5.66,9.82,9.6,2.53,3.94,3.79,8.22,3.79,12.83,0,6.55-5.95,11.61-17.85,15.18ZM1011.85,1422.48l-12.94-14.28c-5.51-6.1-10.12-9.67-13.84-10.71v-.9c3.87-1.48,8.03-2.6,12.5-3.34,4.46-.75,8.77-1.12,12.94-1.12,7.44,0,13.47,1.23,18.08,3.68,4.61,2.46,6.92,5.69,6.92,9.71s-1.71,8-5.13,11.5c-3.43,3.49-8.26,6.51-14.51,9.04-1.49-1.04-2.83-2.24-4.02-3.58Z"/>
    <polygon class="cls-3" points="1166.98 1455.52 1175.9 1422.71 1175.9 1289.02 1171.44 1289.02 1159.39 1315.13 1162.51 1455.52 1166.98 1455.52"/>
    <path class="cls-3" d="M1284.38,1455.97c7.14-1.93,12.95-4.54,17.41-7.81,2.08-6.4,3.53-12.01,4.35-16.85.82-4.83,1.23-9.49,1.23-13.95,0-5.36-1.12-10.86-3.35-16.52-2.23-5.65-5.99-12.31-11.27-19.98-5.28-7.66-12.46-17-21.54-28.01h-4.46l-8.7,19.42c11.31,11.01,20.01,20.09,26.11,27.23,6.1,7.14,10.34,13.1,12.72,17.86,2.38,4.76,3.72,9.23,4.02,13.39-3.12,1.64-7.52,3.2-13.17,4.69-5.66,1.49-12.87,2.23-21.65,2.23-7.74,0-13.58-.52-17.52-1.56-3.94-1.04-6.58-2.9-7.92-5.58-1.34-2.68-2.01-6.47-2.01-11.38h-4.46c-.89,4.02-1.53,7.33-1.9,9.93-.37,2.61-.56,4.88-.56,6.81,0,7.89,2.42,13.69,7.25,17.41,4.83,3.72,12.39,5.58,22.65,5.58,8.03,0,15.62-.97,22.77-2.9Z"/>
    <path class="cls-3" d="M1430.79,1455.52h26.78c4.32,0,8.78-.48,13.39-1.45,4.61-.97,10.01-2.57,16.18-4.8,6.17-2.23,13.58-5.21,22.21-8.93,25-11.16,49.03-16.74,72.09-16.74h2.01l4.24-21.2h-11.16c-3.72,0-7.52-.45-11.38-1.34-3.87-.89-8.41-2.49-13.62-4.8-5.21-2.31-11.83-5.39-19.86-9.26-10.27-5.06-18.38-8.78-24.33-11.16-5.95-2.38-11.09-3.57-15.4-3.57-6.4,0-11.49,1.93-15.29,5.8-3.79,3.87-5.69,10.34-5.69,19.42,0,2.98.22,6.25.67,9.82h4.46c.89-9.22,6.03-13.84,15.4-13.84,2.53,0,5.77.56,9.71,1.67,3.94,1.12,9.56,3.39,16.85,6.81,8.18,3.72,15.14,6.85,20.87,9.37,5.73,2.53,10.97,4.46,15.73,5.8v.89c-7.89.6-15.48,1.67-22.77,3.24-7.29,1.56-15.33,3.46-24.11,5.69-7.59,1.79-13.91,3.24-18.97,4.35-5.06,1.12-9.64,1.9-13.73,2.34-4.09.45-8.45.67-13.06.67h-93.74c-7.74,0-13.17-1.37-16.29-4.13-3.13-2.75-4.69-7.55-4.69-14.4v-126.77h-4.46l-12.05,26.11,2.9,100.66c.3,9.97,1.45,17.86,3.46,23.66,2.01,5.8,5.17,9.93,9.49,12.39,4.31,2.46,10.04,3.68,17.19,3.68h26.78s0,0,0,0h40.17Z"/>
    <rect class="cls-3" x="1520.49" y="1456.83" width="19.25" height="19.25" transform="translate(-588.78 1511.47) rotate(-45)"/>
    <path class="cls-3" d="M1661.8,1397.26c-2.82-7.59-6.58-13.65-11.27-18.19-4.68-4.53-9.93-6.8-15.73-6.8-4.02,0-7.89,1.37-11.61,4.12-3.72,2.76-7.11,6.4-10.15,10.94-3.05,4.54-5.44,9.56-7.15,15.07-1.71,5.5-2.56,11.08-2.56,16.74,0,8.63,2.45,15.55,7.36,20.75,4.91,5.21,11.91,7.82,20.98,7.82,3.72,0,7.07-.3,10.05-.9,2.97-.59,6.1-1.71,9.37-3.35l7.59-17.85c.45,2.68.67,5.36.67,8.03,0,13.25-5.66,23.77-16.96,31.59-11.31,7.81-29.54,13.35-54.69,16.62v4.47l36.61,18.3c27.82-23.81,41.74-51.18,41.74-82.14,0-9.22-1.42-17.63-4.25-25.22ZM1633.9,1426.5c-7.3,0-13.1-.89-17.41-2.68-4.32-1.78-6.48-4.98-6.48-9.59,0-3.58.9-6.92,2.68-10.05,1.79-3.12,4.17-5.69,7.14-7.7,2.98-2.01,6.18-3.01,9.6-3.01,6.25,0,12.02,2.75,17.3,8.26,5.28,5.5,8.96,12.2,11.05,20.08-5.21,3.13-13.17,4.69-23.88,4.69Z"/>
    <polygon class="cls-3" points="486.2 1536.74 449.39 1536.74 449.39 1539.19 467.59 1546.96 443.66 1628.98 416.46 1541.03 408.28 1541.03 381.28 1628.78 355.1 1540.01 374.32 1540.01 374.32 1536.74 325.03 1536.74 325.03 1540.01 337.1 1540.01 368.8 1646.98 379.44 1646.98 405.62 1562.92 431.59 1646.98 442.02 1646.98 471.89 1547.17 486.2 1539.19 486.2 1536.74"/>
    <path class="cls-3" d="M548.8,1606.28c.2-2.05.2-3.89.2-5.73,0-20.25-10.43-32.52-31.5-32.52s-37.22,16.98-37.22,41.32,14.11,39.26,37.02,39.26c13.7,0,24.95-6.74,30.07-16.15l-1.03-.82c-6.54,6.34-14.11,9.2-22.09,9.2-15.34,0-27.61-10.43-27.61-33.13v-1.43h52.16ZM517.9,1570.48c10.64,0,15.55,10.64,15.55,28.23v3.07l-36.82,1.84c1.02-20.46,9-33.14,21.27-33.14Z"/>
    <path class="cls-3" d="M630.4,1606.28c.2-2.05.2-3.89.2-5.73,0-20.25-10.43-32.52-31.5-32.52s-37.22,16.98-37.22,41.32,14.11,39.26,37.02,39.26c13.7,0,24.95-6.74,30.07-16.15l-1.03-.82c-6.54,6.34-14.11,9.2-22.09,9.2-15.34,0-27.61-10.43-27.61-33.13v-1.43h52.16ZM599.51,1570.48c10.64,0,15.55,10.64,15.55,28.23v3.07l-36.82,1.84c1.02-20.46,9-33.14,21.27-33.14Z"/>
    <polygon class="cls-3" points="646.77 1545.74 659.24 1558.01 671.31 1545.74 659.24 1533.26 646.77 1545.74"/>
    <path class="cls-3" d="M640.02,1576.01h12.27v68.32c0,20.04-2.45,27.61-12.48,40.29l1.23,1.43c11.25-8.18,19.43-16.16,23.73-24.95,3.27-6.34,3.48-11.86,3.48-22.5v-69.95l-28.23,5.52v1.84Z"/>
    <path class="cls-3" d="M749.64,1640.43v-44.18c0-10.43-1.84-16.77-5.72-20.86-4.71-5.11-12.89-7.36-24.55-7.36-6.13,0-16.57,1.43-23.32,4.7-2.24,4.91-4.29,15.34-4.09,20.46l1.64.61,8.18-9.82c8.18-9.82,13.09-13.5,17.39-13.5,10.02,0,14.52,5.53,14.52,21.27v16.37l-41.11,2.66c-3.48,4.91-4.91,10.84-4.91,15.75,0,11.86,7.77,22.08,24.13,22.08,9.41,0,17.39-4.9,21.89-13.29.2,5.32,1.43,9.61,2.66,12.68l24.95-5.52v-2.05h-11.66ZM733.69,1633.07c-3.89,5.32-10.02,7.98-15.75,7.98-7.36,0-14.93-5.12-14.93-16.77,0-4.5.82-8.8,2.45-12.07h28.23v20.86Z"/>
    <path class="cls-3" d="M840.46,1640.43v-109.22l-29.25,5.12v2.25h13.29v36.81c-4.91-4.5-11.45-7.36-20.25-7.36-20.25,0-34.77,16.57-34.77,42.75,0,21.68,9.82,37.83,31.3,37.83,9.2,0,19.22-4.7,23.72-15.54v14.93l27.62-5.52v-2.05h-11.66ZM824.5,1628.98c-3.06,8.18-9.81,11.66-16.56,11.66-14.12,0-21.07-12.07-21.07-30.27,0-24.34,10.43-36.61,23.93-36.61,4.7,0,9.61,1.43,13.7,4.5v50.72Z"/>
    <path class="cls-3" d="M983.63,1643.09l-30.27-48.68c23.32-3.06,33.95-14.11,33.95-29.86s-11.04-27.82-43.36-27.82h-47.25v3.28h14.53v103.08h-14.53v3.28h43.78v-3.28h-11.46v-47.24h6.14l29.86,50.52h27.41v-3.28h-8.8ZM929.03,1592.78v-52.77h14.11c18.41,0,25.37,10.84,25.37,25.16,0,17.79-9.41,27.61-33.14,27.61h-6.34Z"/>
    <path class="cls-3" d="M1063.82,1606.28c.21-2.05.21-3.89.21-5.73,0-20.25-10.44-32.52-31.5-32.52s-37.23,16.98-37.23,41.32,14.11,39.26,37.02,39.26c13.71,0,24.96-6.74,30.07-16.15l-1.02-.82c-6.55,6.34-14.12,9.2-22.09,9.2-15.34,0-27.62-10.43-27.62-33.13v-1.43h52.16ZM1032.93,1570.48c10.63,0,15.54,10.64,15.54,28.23v3.07l-36.82,1.84c1.03-20.46,9-33.14,21.28-33.14Z"/>
    <path class="cls-3" d="M1139.49,1640.43v-44.18c0-10.43-1.84-16.77-5.73-20.86-4.7-5.11-12.88-7.36-24.54-7.36-6.14,0-16.57,1.43-23.32,4.7-2.25,4.91-4.29,15.34-4.09,20.46l1.64.61,8.18-9.82c8.18-9.82,13.09-13.5,17.38-13.5,10.03,0,14.52,5.53,14.52,21.27v16.37l-41.11,2.66c-3.47,4.91-4.91,10.84-4.91,15.75,0,11.86,7.78,22.08,24.14,22.08,9.41,0,17.39-4.9,21.88-13.29.21,5.32,1.44,9.61,2.66,12.68l24.96-5.52v-2.05h-11.66ZM1123.53,1633.07c-3.88,5.32-10.02,7.98-15.74,7.98-7.37,0-14.93-5.12-14.93-16.77,0-4.5.81-8.8,2.45-12.07h28.22v20.86Z"/>
    <polygon class="cls-3" points="1183.67 1531.21 1154.83 1536.33 1154.83 1538.58 1167.72 1538.58 1167.72 1643.71 1155.65 1643.71 1155.65 1646.37 1195.54 1646.37 1195.54 1643.71 1183.67 1643.71 1183.67 1531.21"/>
    <path class="cls-3" d="M1326.24,1616.1l-8.8,16.16c-4.09,8.59-6.75,10.84-14.11,10.84h-31.09v-49.91h27.61l9,16.16h2.45v-35.59h-2.45l-9,16.36h-27.61v-50.11h26.39c7.98,0,9.82,2.25,14.11,9.41l8.18,14.11h2.66c.41-6.75.2-18.82-.82-26.79h-82.84v3.27h14.52v103.09h-14.52v3.27h87.54c1.23-8.8,1.84-21.68,1.43-30.27h-2.66Z"/>
    <path class="cls-3" d="M1380.03,1601.17l-11.45-4.09c-7.77-2.86-12.89-5.52-12.89-12.07,0-8.59,7.16-14.52,16.98-14.52,8.59,0,12.68,3.89,17.18,11.86l5.11,8.59,2.05-.2c.41-8.18,0-13.09-.61-18.61-4.3-2.05-13.3-4.09-23.32-4.09-16.36,0-28.43,9.41-28.43,24.54,0,5.11,1.43,9.61,4.7,12.89,3.27,3.48,8.18,5.93,14.73,8.39l10.84,3.89c9.41,3.48,14.11,6.34,14.11,13.09,0,8.39-6.34,15.14-16.98,15.14-9,0-13.29-4.09-20.25-16.36l-4.5-7.77-2.05.41c-.41,7.77,0,15.95.61,21.48,6.75,3.27,17.39,4.91,25.77,4.91,16.77,0,30.07-10.23,30.07-25.57,0-4.91-1.84-9-4.5-12.07-3.89-4.5-10.43-7.16-17.18-9.82Z"/>
    <path class="cls-3" d="M1448.96,1641.05c-6.55,0-11.45-3.07-11.45-11.86v-53.18h24.14v-2.66h-24.14v-20.86h-1.84l-13.91,19.64-12.68,2.05v1.84h12.48v53.18c0,12.89,6.75,19.43,19.43,19.43,11.86,0,18.82-5.93,22.7-12.48l-1.43-1.02c-3.68,4.5-8.8,5.93-13.29,5.93Z"/>
    <path class="cls-3" d="M1532.4,1640.43v-44.18c0-10.43-1.84-16.77-5.72-20.86-4.71-5.11-12.89-7.36-24.55-7.36-6.13,0-16.57,1.43-23.32,4.7-2.24,4.91-4.29,15.34-4.09,20.46l1.64.61,8.18-9.82c8.18-9.82,13.09-13.5,17.39-13.5,10.02,0,14.52,5.53,14.52,21.27v16.37l-41.11,2.66c-3.48,4.91-4.91,10.84-4.91,15.75,0,11.86,7.77,22.08,24.13,22.08,9.41,0,17.39-4.9,21.89-13.29.2,5.32,1.43,9.61,2.66,12.68l24.95-5.52v-2.05h-11.66ZM1516.45,1633.07c-3.89,5.32-10.02,7.98-15.75,7.98-7.36,0-14.93-5.12-14.93-16.77,0-4.5.82-8.8,2.45-12.07h28.23v20.86Z"/>
    <path class="cls-3" d="M1587.63,1641.05c-6.55,0-11.45-3.07-11.45-11.86v-53.18h24.14v-2.66h-24.14v-20.86h-1.84l-13.91,19.64-12.68,2.05v1.84h12.48v53.18c0,12.89,6.75,19.43,19.43,19.43,11.86,0,18.82-5.93,22.7-12.48l-1.43-1.02c-3.68,4.5-8.8,5.93-13.29,5.93Z"/>
    <path class="cls-3" d="M1674.76,1606.28c.2-2.05.2-3.89.2-5.73,0-20.25-10.43-32.52-31.49-32.52s-37.23,16.98-37.23,41.32,14.11,39.26,37.02,39.26c13.71,0,24.95-6.74,30.07-16.15l-1.02-.82c-6.55,6.34-14.12,9.2-22.09,9.2-15.34,0-27.62-10.43-27.62-33.13v-1.43h52.16ZM1643.88,1570.48c10.63,0,15.54,10.64,15.54,28.23v3.07l-36.82,1.84c1.03-20.46,9-33.14,21.28-33.14Z"/>
  </g>
</svg>