<svg width="2000" height="1047" viewBox="0 0 2000 1047" fill="none" xmlns="http://www.w3.org/2000/svg">
<g clip-path="url(#clip0_471_215)">
<path d="M629.811 910.38H622.201V956.28H599.471V845.11C601.721 844.97 604.161 844.82 606.811 844.68C609.461 844.54 612.181 844.41 614.971 844.3C617.761 844.19 620.591 844.1 623.451 844.03C626.311 843.96 629.051 843.92 631.661 843.92C645.151 843.92 655.371 846.39 662.331 851.32C669.291 856.25 672.771 863.94 672.771 874.38C672.771 879.02 672.171 883.08 670.971 886.56C669.771 890.04 668.201 893.07 666.241 895.64C664.281 898.21 662.031 900.37 659.501 902.11C656.961 903.85 654.311 905.34 651.561 906.57C654.891 912.3 658.071 917.7 661.081 922.78C664.091 927.86 667.081 932.3 670.051 936.1C673.021 939.91 676.071 942.92 679.191 945.13C682.311 947.34 685.641 948.45 689.201 948.45H689.961V955.52C688.151 956.1 686.081 956.57 683.761 956.93C681.441 957.29 678.831 957.47 675.931 957.47C673.031 957.47 670.651 957.33 668.371 957.04C666.091 956.75 663.951 956.19 661.951 955.35C659.951 954.52 658.001 953.3 656.081 951.7C654.161 950.11 652.181 948 650.151 945.39C648.121 942.78 645.941 939.57 643.621 935.76C641.301 931.95 638.761 927.4 636.011 922.11L629.811 910.36V910.38ZM626.111 899.39C629.301 899.39 632.361 899.01 635.301 898.25C638.241 897.49 640.541 896.53 642.211 895.37C643.081 894.79 643.951 894.08 644.821 893.25C645.691 892.42 646.471 891.26 647.161 889.77C647.851 888.29 648.391 886.42 648.791 884.17C649.191 881.92 649.391 879.09 649.391 875.69C649.391 871.92 648.941 868.73 648.031 866.12C647.121 863.51 645.781 861.42 644.011 859.87C642.231 858.31 640.041 857.19 637.431 856.5C634.821 855.81 631.771 855.47 628.291 855.47C627.491 855.47 626.511 855.51 625.351 855.58C624.191 855.65 623.141 855.76 622.201 855.91V899.42H626.121L626.111 899.39Z" fill="#A2A2A2"/>
<path d="M859.982 900.15C859.982 909 858.802 916.97 856.442 924.08C854.082 931.19 850.552 937.24 845.832 942.24C841.122 947.24 835.242 951.09 828.212 953.77C821.172 956.45 812.982 957.79 803.632 957.79C794.282 957.79 785.862 956.41 779.052 953.66C772.232 950.9 766.612 947.01 762.192 941.97C757.772 936.93 754.522 930.88 752.452 923.8C750.382 916.73 749.352 908.84 749.352 900.14C749.352 891.44 750.422 883.61 752.562 876.64C754.702 869.68 757.982 863.75 762.402 858.86C766.822 853.96 772.462 850.21 779.312 847.6C786.162 844.99 794.342 843.68 803.842 843.68C813.342 843.68 821.372 844.98 828.372 847.6C835.372 850.21 841.212 853.96 845.882 858.86C850.562 863.76 854.072 869.68 856.432 876.64C858.792 883.6 859.972 891.43 859.972 900.14L859.982 900.15ZM836.052 900.26C836.052 893.44 835.432 887.35 834.202 881.99C832.972 876.62 831.052 872.06 828.432 868.28C825.822 864.51 822.482 861.63 818.422 859.63C814.362 857.64 809.502 856.64 803.842 856.64C798.912 856.64 794.322 857.15 790.082 858.16C785.842 859.18 782.482 860.62 780.022 862.51C777.552 864.4 775.762 868.48 774.642 874.75C773.512 881.02 772.952 889.53 772.952 900.26C772.952 906.93 773.462 912.99 774.472 918.42C775.492 923.86 777.172 928.54 779.532 932.45C781.892 936.37 785.022 939.39 788.942 941.53C792.862 943.67 797.752 944.74 803.622 944.74C809.492 944.74 814.622 944.22 818.582 943.16C822.532 942.11 825.852 940.71 828.532 938.97C829.762 938.17 830.852 936.56 831.792 934.13C832.732 931.7 833.512 928.75 834.132 925.27C834.752 921.79 835.222 917.89 835.542 913.58C835.872 909.27 836.032 904.82 836.032 900.26H836.052Z" fill="#A2A2A2"/>
<path d="M954.071 944.751H989.531C994.461 944.681 998.521 944.281 1001.71 943.551C1004.9 942.821 1007.53 941.901 1009.6 940.781C1011.67 939.661 1013.32 938.461 1014.55 937.191C1015.78 935.921 1016.91 934.711 1017.92 933.541L1023.58 938.001C1022.71 939.741 1021.57 941.741 1020.15 943.981C1018.74 946.231 1016.94 948.331 1014.77 950.291C1012.59 952.251 1009.93 953.921 1006.78 955.291C1003.63 956.671 999.871 957.361 995.521 957.361C993.351 957.361 990.261 957.341 986.271 957.311C982.281 957.271 977.881 957.201 973.051 957.091C968.231 956.981 963.261 956.891 958.151 956.821C953.041 956.751 948.291 956.661 943.901 956.551C939.511 956.441 935.781 956.371 932.701 956.331C929.621 956.291 927.681 956.281 926.881 956.281V948.661L982.901 856.851H978.981C975.431 856.851 971.291 856.831 966.581 856.801C961.871 856.761 957.191 856.711 952.551 856.641C947.911 856.571 943.631 856.501 939.711 856.421C935.791 856.351 932.861 856.281 930.901 856.201L932.641 844.891H1010.3V851.851L954.061 944.741L954.071 944.751Z" fill="#A2A2A2"/>
<path d="M1196.32 900.15C1196.32 909 1195.14 916.97 1192.78 924.08C1190.42 931.19 1186.89 937.24 1182.17 942.24C1177.46 947.24 1171.58 951.09 1164.55 953.77C1157.51 956.45 1149.32 957.79 1139.97 957.79C1130.62 957.79 1122.2 956.41 1115.39 953.66C1108.57 950.9 1102.95 947.01 1098.53 941.97C1094.11 936.93 1090.86 930.88 1088.79 923.8C1086.72 916.73 1085.69 908.84 1085.69 900.14C1085.69 891.44 1086.76 883.61 1088.9 876.64C1091.04 869.68 1094.32 863.75 1098.74 858.86C1103.16 853.96 1108.8 850.21 1115.65 847.6C1122.5 844.99 1130.68 843.68 1140.18 843.68C1149.68 843.68 1157.71 844.98 1164.71 847.6C1171.71 850.21 1177.55 853.96 1182.22 858.86C1186.9 863.76 1190.41 869.68 1192.77 876.64C1195.13 883.6 1196.31 891.43 1196.31 900.14L1196.32 900.15ZM1172.39 900.26C1172.39 893.44 1171.77 887.35 1170.54 881.99C1169.31 876.62 1167.39 872.06 1164.77 868.28C1162.16 864.51 1158.82 861.63 1154.76 859.63C1150.7 857.64 1145.84 856.64 1140.18 856.64C1135.25 856.64 1130.66 857.15 1126.42 858.16C1122.18 859.18 1118.82 860.62 1116.36 862.51C1113.89 864.4 1112.1 868.48 1110.98 874.75C1109.85 881.02 1109.29 889.53 1109.29 900.26C1109.29 906.93 1109.8 912.99 1110.81 918.42C1111.83 923.86 1113.51 928.54 1115.87 932.45C1118.23 936.37 1121.36 939.39 1125.28 941.53C1129.2 943.67 1134.09 944.74 1139.96 944.74C1145.83 944.74 1150.96 944.22 1154.92 943.16C1158.87 942.11 1162.19 940.71 1164.87 938.97C1166.1 938.17 1167.19 936.56 1168.13 934.13C1169.07 931.7 1169.85 928.75 1170.47 925.27C1171.09 921.79 1171.56 917.89 1171.88 913.58C1172.21 909.27 1172.37 904.82 1172.37 900.26H1172.39Z" fill="#A2A2A2"/>
<path d="M1361.77 956.83L1283.13 878.73H1282.8C1282.94 885.26 1283.09 891.28 1283.24 896.79C1283.31 899.11 1283.37 901.45 1283.4 903.81C1283.44 906.17 1283.47 908.34 1283.51 910.34C1283.55 912.34 1283.58 914.08 1283.62 915.56C1283.66 917.05 1283.67 918.12 1283.67 918.77V956.3H1270.4V844.15H1280.3L1359.05 922.03H1359.16C1359.01 916.01 1358.91 910.39 1358.83 905.17C1358.83 902.92 1358.81 900.65 1358.78 898.37C1358.74 896.09 1358.71 893.91 1358.67 891.84C1358.63 889.77 1358.62 887.87 1358.62 886.13V844.9H1371.89V956.83H1361.77Z" fill="#A2A2A2"/>
<path d="M1456.71 445.331C1423.59 483.011 1393.01 523.221 1364.93 565.941C1310.57 648.741 1261.54 702.571 1217.85 727.441C1209.2 732.371 1199.99 736.791 1190.22 740.711C1242.21 751.511 1285.17 750.791 1319.14 738.541C1330.39 734.321 1341.16 729.281 1351.45 723.421C1389.79 701.591 1431.86 654.721 1477.68 582.791C1495.37 556.351 1514.63 529.291 1535.44 501.611C1553.99 477.231 1572.03 456.531 1589.56 439.461C1560.21 420.361 1531.69 406.911 1503.88 399.041C1487.09 413.241 1471.37 428.671 1456.72 445.331H1456.71Z" fill="#A2A2A2"/>
<path d="M1640.76 399.142C1641.58 398.652 1642.41 398.142 1643.23 397.672C1746.68 338.772 1858.84 362.792 1979.74 469.682C1931.94 406.852 1883.57 364.272 1834.57 341.952C1785.57 319.642 1740.3 310.082 1698.73 313.282C1657.16 316.482 1623.68 324.492 1598.23 337.342L1580.55 346.852C1600.79 361.112 1620.88 378.562 1640.76 399.152V399.142Z" fill="#A2A2A2"/>
<path d="M1523.62 341.94C1474.61 319.63 1429.33 310.07 1387.76 313.27C1346.19 316.47 1312.71 324.48 1287.26 337.34L1261.58 351.16C1217.46 376.27 1178.87 407.65 1145.73 445.34C1112.62 483.02 1082.03 523.22 1053.95 565.95C999.58 648.74 950.56 702.56 906.87 727.44C898.21 732.37 889.02 736.79 879.24 740.71C931.22 751.51 974.2 750.8 1008.15 738.55C1019.4 734.33 1030.18 729.28 1040.47 723.43C1078.8 701.59 1120.88 654.72 1166.71 582.79C1184.4 556.36 1203.65 529.3 1224.46 501.63C1262.55 451.58 1298.47 416.92 1332.26 397.68C1435.72 338.77 1547.87 362.79 1668.79 469.67C1620.98 406.85 1572.61 364.26 1523.62 341.94Z" fill="#A2A2A2"/>
<path d="M553.289 591.15C586.409 553.47 616.989 513.26 645.069 470.54C699.429 387.74 748.469 333.91 792.149 309.04C800.459 304.31 809.299 300.05 818.649 296.24C818.919 296.06 819.189 295.87 819.459 295.7C767.619 284.98 724.759 285.71 690.869 297.94C679.619 302.16 668.849 307.2 658.559 313.06C620.229 334.89 578.149 381.76 532.329 453.69C514.639 480.13 495.379 507.19 474.569 534.87C463.739 549.1 453.099 562.04 442.619 573.78C467.709 595.93 492.279 614.23 516.239 628.61C529.259 616.9 541.619 604.43 553.279 591.16L553.289 591.15Z" fill="#A2A2A2"/>
<path d="M366.77 638.811C263.32 697.711 151.16 673.691 30.2598 566.811C78.0598 629.641 126.43 672.221 175.43 694.541C224.43 716.851 269.71 726.411 311.28 723.211C352.85 720.011 386.33 712.001 411.78 699.151L437.47 685.341C445.73 680.641 453.8 675.711 461.68 670.571C443.51 652.511 425.56 631.871 407.9 608.721C393.86 621.151 380.16 631.221 366.79 638.831L366.77 638.811Z" fill="#A2A2A2"/>
<path d="M1186.41 313.151C1043.1 262.781 928.07 262.061 841.34 311.011C800.01 334.321 771.55 372.161 755.92 424.551C738.82 482.121 749.95 555.351 789.24 644.261C779.85 651.741 769.98 658.401 759.65 664.231C722.48 685.201 679 694.491 629.17 692.111C565.06 688.521 497.02 654.781 425.01 590.861C472.55 653.891 521.05 696.901 570.53 719.911C620.01 742.901 665.75 753.291 707.79 751.091C749.83 748.871 783.59 741.411 809.07 728.651L834.22 715.281C879.23 689.891 917.52 659.281 949.07 623.521C986.01 580.891 1018.76 537.631 1047.37 493.721C1072.62 455.511 1096.99 422.681 1120.46 395.301C1143.94 367.891 1168.29 347.091 1193.47 332.861C1200.48 328.911 1207.73 325.341 1215.23 322.221C1207.47 320.061 1197.87 317.021 1186.42 313.151H1186.41ZM927.17 479.041C908.24 508.221 887.39 537.401 864.65 566.581C847.55 526.681 842.87 487.941 850.55 450.391C861.04 413.961 884.25 385.631 920.18 365.361C959.83 342.991 999.2 336.021 1038.27 344.451C1009.8 365.441 972.76 410.291 927.17 479.041Z" fill="#A2A2A2"/>
<path d="M1531.24 185.501C1505.5 170.891 1487.61 166.731 1477.59 173.051C1465.93 180.391 1450.67 211.321 1431.74 265.831C1443.56 262.301 1462.22 267.931 1487.76 282.661C1513.31 297.391 1531.29 301.491 1541.72 294.931C1545.73 292.401 1550.56 287.391 1556.21 279.911C1561.87 272.411 1567.64 262.201 1573.49 249.261C1579.36 236.321 1584.04 224.401 1587.55 213.521C1591.08 202.601 1593.32 195.731 1594.31 192.861L1594.51 191.881C1578.07 202.251 1556.98 200.131 1531.24 185.501Z" fill="#A2A2A2"/>
<path d="M423.011 568.231C421.991 556.821 420.081 544.161 417.221 530.251C414.391 516.331 411.001 505.101 407.151 496.551C403.301 487.991 399.691 482.041 396.331 478.681C387.631 469.981 369.191 469.981 341.001 478.701C312.841 487.401 293.401 488.751 282.641 482.711C289.021 540.051 297.071 573.591 306.811 583.311C315.181 591.711 333.551 591.601 361.871 583.071C390.221 574.511 411.271 577.121 425.001 590.851L425.021 589.851C424.671 586.831 424.001 579.641 423.001 568.231H423.011Z" fill="#A2A2A2"/>
</g>
<defs>
<clipPath id="clip0_471_215">
<rect width="2000" height="1047" fill="white"/>
</clipPath>
</defs>
</svg>
