<svg id="SvgjsSvg1001" width="288" height="288" xmlns="http://www.w3.org/2000/svg" version="1.1" xmlns:xlink="http://www.w3.org/1999/xlink" xmlns:svgjs="http://svgjs.com/svgjs"><defs id="SvgjsDefs1002"></defs><g id="SvgjsG1008"><svg xmlns="http://www.w3.org/2000/svg" fill-rule="evenodd" stroke-linejoin="round" stroke-miterlimit="2" clip-rule="evenodd" viewBox="0 0 64 64" width="288" height="288"><path d="M33 7a1 1 0 0 0-1 1v34c0 2.76-2.24 5-5 5s-5-2.24-5-5 2.24-5 5-5a1 1 0 0 0 1-1v-8a1 1 0 0 0-1-1c-8.28 0-15 6.721-15 15 0 8.28 6.72 15 15 15 8.279 0 15-6.72 15-15V25.494A16.927 16.927 0 0 0 49 27h2a1 1 0 0 0 1-1v-8a1 1 0 0 0-1-1h-2c-3.863 0-7-3.137-7-7V8a1 1 0 0 0-1-1zm1 2h6v1c0 4.967 4.033 9 9 9h1v6h-1c-2.731 0-5.292-.73-7.499-2.009a1 1 0 0 0-1.501.866V42c0 7.175-5.825 13-13 13s-13-5.825-13-13c0-6.838 5.292-12.45 12-12.962v6.033c-3.39.486-6 3.405-6 6.93 0 3.862 3.137 7 7 7s7-3.138 7-7z" fill="#ffffff" class="svgShape color000000-0 selectable"></path></svg></g></svg>