<svg width="56" height="56" viewBox="0 0 56 56" fill="none" xmlns="http://www.w3.org/2000/svg">
<g clip-path="url(#clip0_429_243)">
<path d="M45.7339 6.06719V4.20052C45.7339 2.80052 46.6672 1.86719 48.0672 1.86719H49.9339C52.2672 1.86719 54.1339 3.73385 54.1339 6.06719V36.4005M45.7339 6.06719V29.8672C45.7339 31.2672 46.6672 32.2005 48.0672 32.2005H49.9339C52.2672 32.2005 54.1339 34.0672 54.1339 36.4005M45.7339 6.06719H21.4672C20.0672 6.06719 19.1339 7.00052 19.1339 8.40052V17.9392M54.1339 36.4005C54.1339 38.7339 52.2672 40.6005 49.9339 40.6005H44.2872M25.2005 30.1005C31.9672 31.7339 36.8672 37.8005 36.8672 44.8005V47.1339M18.2005 47.1339V28.4672C18.2005 27.0672 19.1339 26.1339 20.5339 26.1339H22.8672C24.2672 26.1339 25.2005 27.0672 25.2005 28.4672V47.1339M18.2005 30.1005C11.4339 31.7339 6.53385 37.8005 6.53385 44.8005V47.1339M41.5339 51.8005C41.5339 53.2005 40.6005 54.1339 39.2005 54.1339H4.20052C2.80052 54.1339 1.86719 53.2005 1.86719 51.8005V49.4672C1.86719 48.0672 2.80052 47.1339 4.20052 47.1339H39.2005C40.6005 47.1339 41.5339 48.0672 41.5339 49.4672V51.8005Z" stroke="white" stroke-width="3" stroke-miterlimit="10" stroke-linecap="round" stroke-linejoin="round"/>
</g>
<defs>
<clipPath id="clip0_429_243">
<rect width="56" height="56" fill="white"/>
</clipPath>
</defs>
</svg>
