<svg width="163" height="61" viewBox="0 0 163 61" fill="none" xmlns="http://www.w3.org/2000/svg">
<path d="M4.23155 18.2714L5.05751 19.0974L6.04612 18.1088L5.05751 17.1211L4.23155 17.947L3.4056 17.1211L2.41699 18.1088L3.4056 19.0974L4.23155 18.2714Z" fill="white"/>
<path d="M21.9139 23.8279C21.8003 23.4172 21.614 22.9747 21.3551 22.4995H21.0307L20.3992 23.9088C20.7117 24.2977 20.9743 24.6838 21.1842 25.0673C21.395 25.4507 21.5331 25.7824 21.5977 26.0632C21.3278 26.1822 21.0007 26.274 20.6172 26.3385C20.2338 26.403 19.8213 26.4357 19.3778 26.4357H6.74225C6.1807 26.4357 5.78635 26.3357 5.5601 26.1358C5.33294 25.9359 5.21936 25.5879 5.21936 25.0909V19.6963H4.89588L4.31253 20.9602L2.49797 22.1269C1.80649 22.5694 1.31764 23.0092 1.03233 23.4472C0.746104 23.8842 0.602539 24.3404 0.602539 24.8156C0.602539 25.3771 0.767004 25.8042 1.09684 26.0959C1.42577 26.3875 1.90372 26.5329 2.53068 26.5329C3.05951 26.5329 3.52928 26.4303 3.93999 26.2249L4.3934 25.14C4.46882 25.8414 4.56332 26.4012 4.6769 26.8164C4.79048 27.2326 4.97948 27.5288 5.24389 27.7078C5.50831 27.8859 5.89993 27.9749 6.41877 27.9749H19.0544C19.5505 27.9749 20.0266 27.9259 20.48 27.8287C20.9334 27.7314 21.3114 27.5969 21.614 27.4243C21.7649 27.0781 21.8812 26.7028 21.962 26.2976C22.0429 25.8932 22.0838 25.4907 22.0838 25.0909C22.0838 24.6593 22.0265 24.2377 21.9139 23.8279ZM3.6574 24.9046C3.39208 24.9646 3.07132 24.9937 2.69333 24.9937C2.23991 24.9937 1.87555 24.9155 1.60023 24.7593C1.32491 24.603 1.1868 24.3949 1.1868 24.135C1.1868 23.9624 1.27039 23.7925 1.43758 23.6253C1.60477 23.4581 1.87282 23.3036 2.23992 23.1637L4.11899 22.4504L4.34524 24.6866C4.1517 24.7729 3.92181 24.8456 3.6574 24.9046Z" fill="white"/>
<path d="M26.264 26.072C26.3612 26.3582 26.4094 26.6526 26.4094 26.9552C26.4094 27.7111 26.0532 28.3536 25.3399 28.8833C24.6375 29.4049 23.6244 29.7365 22.3032 29.8801L21.5009 29.0777L20.6749 29.9037L19.849 29.0777L18.8604 30.0663L19.849 31.054L20.6749 30.2281L21.5009 31.054L22.3123 30.2426L25.0646 31.5402C25.7015 30.5679 26.1658 29.6175 26.4575 28.6888C26.7492 27.7602 26.8946 26.8852 26.8946 26.0647C26.8946 25.4922 26.7974 24.898 26.6029 24.2828C26.4085 23.6668 26.1386 23.0734 25.7933 22.501H25.4698L24.8383 23.9103C25.2272 24.3746 25.5371 24.7799 25.7697 25.1251C26.0014 25.4704 26.1668 25.7866 26.264 26.0729V26.072Z" fill="white"/>
<path d="M39.3038 19.6005L40.1298 20.4265L41.1184 19.4379L40.1298 18.4502L39.3038 19.2761L38.4779 18.4502L37.4893 19.4379L38.4779 20.4265L39.3038 19.6005Z" fill="white"/>
<path d="M58.193 17.1373V15.8906H57.8686C56.8427 16.4413 56.5565 17.1918 57.0099 18.1422L57.2371 26.1937C56.7182 26.3555 56.2594 26.4363 55.8596 26.4363H52.9437C52.1341 26.4363 51.4854 26.3718 51.0001 26.2419C51.3563 25.8966 51.6344 25.5104 51.8343 25.0834C52.0342 24.6572 52.1341 24.2011 52.1341 23.715C52.1341 23.1752 51.9315 22.7264 51.5262 22.3702C51.121 22.014 50.5404 21.8359 49.7853 21.8359C49.45 21.8359 49.102 21.874 48.7403 21.9495C48.3778 22.0249 48.0189 22.1221 47.6627 22.2402L46.8367 24.411C47.0521 24.4546 47.2384 24.5327 47.3955 24.6463C47.5518 24.7599 47.7654 24.9734 48.0352 25.286L48.8612 26.2092C48.0734 26.3609 47.1875 26.4363 46.2043 26.4363H42.3171C41.6902 26.4363 41.0959 26.3882 40.5344 26.291C40.8151 25.9884 41.0314 25.6613 41.1831 25.3105C41.334 24.9598 41.4094 24.5845 41.4094 24.1847C41.4094 23.7313 41.3176 23.3015 41.1341 22.8963C40.9505 22.4919 40.7107 22.1621 40.4135 21.9086C40.1164 21.6551 39.8002 21.5279 39.4658 21.5279C39.1959 21.5279 38.9233 21.6251 38.6471 21.8195C38.3718 22.014 38.1183 22.2702 37.8857 22.5892C37.654 22.9072 37.4677 23.2561 37.3269 23.6341C37.1869 24.0121 37.117 24.3846 37.117 24.7517C37.117 25.346 37.3214 25.8857 37.7321 26.3718C37.2569 26.4145 36.7381 26.4363 36.1774 26.4363H31.3171C30.7556 26.4363 30.3612 26.3364 30.1349 26.1365C29.9078 25.9366 29.7942 25.5886 29.7942 25.0916V15.8906H29.4707L28.5957 17.7861L28.8065 25.0916C28.8274 25.8157 28.9119 26.3882 29.0573 26.8089C29.2027 27.2305 29.4326 27.5294 29.746 27.7084C30.0586 27.8865 30.4748 27.9756 30.9927 27.9756H35.853C36.4473 27.9756 37.0116 27.9211 37.5458 27.8129C38.0801 27.7057 38.569 27.5485 39.0124 27.3432C39.4222 27.5485 39.8783 27.7057 40.3808 27.8129C40.8833 27.9211 41.4203 27.9756 41.9927 27.9756H45.8808C46.615 27.9756 47.3147 27.9002 47.9789 27.7484C48.6431 27.5976 49.2446 27.3813 49.7853 27.1006C50.1733 27.3813 50.6058 27.5976 51.081 27.7484C51.5562 27.9002 52.0687 27.9756 52.6203 27.9756H55.5361C55.925 27.9756 56.3103 27.9238 56.6937 27.8211C57.0771 27.7194 57.4097 27.5921 57.6905 27.4404C57.8631 27.106 57.9903 26.7335 58.0712 26.3228C58.1521 25.913 58.193 25.5023 58.193 25.0916V19.0173L59.0998 18.3203L58.193 17.1373ZM39.6285 26.0638C39.0024 25.8694 38.5081 25.6104 38.1465 25.286C37.7839 24.9625 37.6031 24.6054 37.6031 24.2174C37.6031 23.8931 37.7358 23.6205 38.0002 23.3987C38.2646 23.1779 38.5971 23.0671 38.997 23.0671C39.3313 23.0671 39.6448 23.1561 39.9365 23.3342C40.2282 23.5123 40.4653 23.7449 40.6489 24.0312C40.8324 24.3174 40.9242 24.6272 40.9242 24.9625C40.9242 25.4377 40.4926 25.8048 39.6285 26.0638ZM49.8507 25.5777L48.9112 24.5409C48.5114 24.0984 48.1761 23.8394 47.9062 23.7631V23.6986C48.187 23.5905 48.4896 23.5096 48.8139 23.456C49.1374 23.4015 49.4509 23.3742 49.7535 23.3742C50.2932 23.3742 50.7303 23.4642 51.0656 23.6423C51.3999 23.8204 51.568 24.0548 51.568 24.3465C51.568 24.6381 51.4436 24.9271 51.1955 25.1806C50.9465 25.435 50.5958 25.6531 50.1424 25.8366C50.0342 25.7612 49.937 25.6749 49.8507 25.5777Z" fill="white"/>
<path d="M61.1092 27.9756L61.7571 25.594V15.8906H61.4336L60.5586 17.7861L60.7858 27.9756H61.1092Z" fill="white"/>
<path d="M69.6303 28.008C70.1491 27.8681 70.5698 27.6791 70.8942 27.441C71.045 26.9767 71.1504 26.5687 71.2104 26.218C71.2695 25.8672 71.2995 25.5292 71.2995 25.2057C71.2995 24.8168 71.2186 24.418 71.0568 24.0072C70.8951 23.5974 70.6216 23.114 70.2391 22.557C69.8556 22.001 69.3341 21.3231 68.6762 20.5244H68.3518L67.7203 21.9337C68.5408 22.7333 69.1723 23.3921 69.6157 23.91C70.0583 24.4289 70.3663 24.8605 70.5389 25.2057C70.7116 25.551 70.8088 25.8754 70.8306 26.178C70.6034 26.297 70.2854 26.4106 69.8747 26.5178C69.464 26.626 68.9406 26.6796 68.3037 26.6796C67.7421 26.6796 67.3178 26.6414 67.0316 26.566C66.7453 26.4906 66.5536 26.3552 66.4564 26.1607C66.3592 25.9663 66.311 25.691 66.311 25.3348H65.9866C65.9221 25.6264 65.8758 25.8672 65.8485 26.0553C65.8212 26.2443 65.8076 26.4088 65.8076 26.5496C65.8076 27.1221 65.983 27.5437 66.3337 27.8136C66.6845 28.0834 67.2324 28.2188 67.9784 28.2188C68.5617 28.2188 69.1124 28.1488 69.6312 28.008H69.6303Z" fill="white"/>
<path d="M80.2575 27.9757H82.2011C82.5146 27.9757 82.838 27.9412 83.1733 27.8703C83.5077 27.8004 83.8993 27.684 84.3482 27.5223C84.7961 27.3606 85.3332 27.1443 85.9601 26.8744C87.7747 26.0648 89.5184 25.6596 91.193 25.6596H91.3384L91.6464 24.1203H90.8368C90.5669 24.1203 90.2916 24.0876 90.0109 24.0231C89.7301 23.9586 89.4002 23.8423 89.0223 23.6751C88.6443 23.5079 88.1636 23.2835 87.5802 23.0027C86.8351 22.6356 86.2463 22.3658 85.8147 22.1931C85.3831 22.0205 85.0097 21.9342 84.6971 21.9342C84.2328 21.9342 83.863 22.075 83.5876 22.3558C83.3123 22.6365 83.1742 23.1063 83.1742 23.7651C83.1742 23.9813 83.1906 24.2185 83.2233 24.4774H83.5477C83.6122 23.8078 83.9847 23.4734 84.6653 23.4734C84.8489 23.4734 85.0842 23.5143 85.3704 23.5952C85.6566 23.676 86.0646 23.8405 86.5934 24.0895C87.1877 24.3593 87.692 24.5865 88.1082 24.77C88.5234 24.9536 88.9041 25.0944 89.2503 25.1907V25.2552C88.6779 25.2989 88.1272 25.377 87.5975 25.4906C87.0678 25.6042 86.4853 25.7414 85.8474 25.904C85.2968 26.034 84.838 26.1394 84.4709 26.2202C84.1038 26.3011 83.7712 26.3583 83.475 26.3901C83.1779 26.4229 82.8616 26.4392 82.5273 26.4392H75.7233C75.1618 26.4392 74.7674 26.3393 74.5412 26.1394C74.314 25.9395 74.2014 25.5914 74.2014 25.0944V15.8926H73.877L73.002 17.788L73.2128 25.0944C73.2346 25.8177 73.3182 26.3901 73.4635 26.8117C73.6089 27.2334 73.8388 27.5323 74.1523 27.7104C74.4658 27.8885 74.881 27.9775 75.3999 27.9775H77.3435H80.2593L80.2575 27.9757Z" fill="white"/>
<path d="M87.4667 27.7814L86.4785 28.7695L87.4667 29.7577L88.4549 28.7695L87.4667 27.7814Z" fill="white"/>
<path d="M97.0257 23.7472C96.8203 23.1956 96.5477 22.7558 96.207 22.4269C95.8671 22.0971 95.4864 21.9326 95.0648 21.9326C94.7731 21.9326 94.4924 22.0326 94.2225 22.2325C93.9526 22.4324 93.7064 22.6968 93.4856 23.0257C93.2639 23.3556 93.0912 23.7199 92.9667 24.1197C92.8432 24.5186 92.7805 24.9239 92.7805 25.3346C92.7805 25.9606 92.9595 26.4631 93.3157 26.8411C93.6719 27.2191 94.1798 27.4081 94.8386 27.4081C95.1084 27.4081 95.351 27.3863 95.5673 27.3427C95.7835 27.3 96.0098 27.2191 96.2479 27.1001L96.7985 25.8044C96.8312 25.9988 96.8467 26.1933 96.8467 26.3877C96.8467 27.349 96.4369 28.1123 95.6154 28.6793C94.7949 29.2463 93.4719 29.6488 91.6465 29.886V30.2104L94.3034 31.5388C96.3233 29.8106 97.3328 27.8234 97.3328 25.5772C97.3328 24.9075 97.2301 24.2978 97.0257 23.7472ZM94.9994 25.8689C94.4696 25.8689 94.0489 25.8043 93.7355 25.6744C93.422 25.5454 93.2657 25.3128 93.2657 24.9775C93.2657 24.7185 93.3311 24.4759 93.4601 24.2488C93.5901 24.0225 93.7627 23.8362 93.979 23.6899C94.1943 23.5446 94.4269 23.471 94.675 23.471C95.1293 23.471 95.5473 23.6718 95.9307 24.0707C96.3142 24.4705 96.5813 24.9566 96.7331 25.529C96.3542 25.7553 95.7772 25.8689 94.9994 25.8689Z" fill="white"/>
<path d="M11.6979 33.8711H9.02556V34.0492L10.3467 34.6125L8.61031 40.566L6.63583 34.1828H6.04157L4.08163 40.5514L2.18165 34.1082H3.57733V33.8711H0V34.1082H0.875024L3.17662 41.8726H3.94806L5.84894 35.7711L7.73438 41.8726H8.49128L10.6584 34.628L11.6979 34.0492V33.8711Z" fill="white"/>
<path d="M16.2406 38.9175C16.2551 38.7694 16.2551 38.6358 16.2551 38.5023C16.2551 37.0321 15.4982 36.1416 13.969 36.1416C12.4397 36.1416 11.2676 37.3737 11.2676 39.1401C11.2676 40.9065 12.2916 41.9905 13.9544 41.9905C14.9485 41.9905 15.7654 41.5008 16.1361 40.8184L16.0625 40.7584C15.5873 41.2191 15.0375 41.4263 14.4587 41.4263C13.3456 41.4263 12.4552 40.6694 12.4552 39.022V38.9175H16.2406ZM13.9999 36.3197C14.7713 36.3197 15.1284 37.092 15.1284 38.3687V38.5913L12.4561 38.7249C12.5297 37.2401 13.1094 36.3197 13.9999 36.3197Z" fill="white"/>
<path d="M22.1634 38.9175C22.178 38.7694 22.178 38.6358 22.178 38.5023C22.178 37.0321 21.4211 36.1416 19.8918 36.1416C18.3626 36.1416 17.1904 37.3737 17.1904 39.1401C17.1904 40.9065 18.2145 41.9905 19.8773 41.9905C20.8713 41.9905 21.6882 41.5008 22.0589 40.8184L21.9853 40.7584C21.5101 41.2191 20.9604 41.4263 20.3816 41.4263C19.2685 41.4263 18.378 40.6694 18.378 39.022V38.9175H22.1634ZM19.9218 36.3197C20.6933 36.3197 21.0494 37.092 21.0494 38.3687V38.5913L18.378 38.7249C18.4516 37.2401 19.0304 36.3197 19.9218 36.3197Z" fill="white"/>
<path d="M23.3516 34.5232L24.2575 35.4146L25.1334 34.5232L24.2575 33.6182L23.3516 34.5232Z" fill="white"/>
<path d="M22.8612 36.7198H23.7516V41.6783C23.7516 43.133 23.5735 43.6828 22.8457 44.6032L22.9348 44.7068C23.7516 44.1135 24.345 43.5337 24.6566 42.8959C24.8938 42.4361 24.9092 42.0345 24.9092 41.263V36.1855L22.8602 36.5863V36.7198H22.8612Z" fill="white"/>
<path d="M30.819 41.3972V38.1906C30.819 37.4328 30.6854 36.973 30.4028 36.6759C30.0621 36.3052 29.4679 36.1416 28.6219 36.1416C28.1767 36.1416 27.4189 36.2452 26.9291 36.4833C26.7665 36.8394 26.6174 37.5963 26.6329 37.968L26.751 38.0125L27.3453 37.2992C27.9386 36.5868 28.2948 36.3197 28.6074 36.3197C29.3343 36.3197 29.6614 36.7204 29.6614 37.8635V39.0511L26.6774 39.2446C26.4248 39.6008 26.3203 40.0315 26.3203 40.3877C26.3203 41.2482 26.8846 41.9905 28.0722 41.9905C28.7555 41.9905 29.3343 41.6344 29.6614 41.0256C29.6759 41.4117 29.765 41.7234 29.854 41.946L31.665 41.5453V41.3972H30.819ZM29.6614 40.8629C29.3788 41.2482 28.9336 41.4417 28.5174 41.4417C27.9831 41.4417 27.4343 41.0701 27.4343 40.2241C27.4343 39.8979 27.4934 39.5854 27.6124 39.3482H29.6614V40.8629Z" fill="white"/>
<path d="M37.4099 41.3976V33.4697L35.2873 33.8414V34.004H36.2523V36.6763C35.8961 36.3501 35.4209 36.1421 34.7821 36.1421C33.3128 36.1421 32.2588 37.3442 32.2588 39.2451C32.2588 40.8188 32.9712 41.991 34.5295 41.991C35.1983 41.991 35.9252 41.6493 36.2523 40.8634V41.9465L38.2558 41.5458V41.3976H37.4099ZM36.2523 40.5662C36.0297 41.1596 35.539 41.4122 35.0492 41.4122C34.0252 41.4122 33.52 40.5362 33.52 39.2151C33.52 37.4487 34.2778 36.5582 35.2573 36.5582C35.599 36.5582 35.9552 36.6618 36.2523 36.8844V40.5662Z" fill="white"/>
<path d="M47.8028 41.59L45.6057 38.0571C47.2976 37.8345 48.0699 37.0322 48.0699 35.8891C48.0699 34.746 47.2685 33.8701 44.9224 33.8701H41.4932V34.1082H42.5472V41.59H41.4932V41.828H44.6698V41.59H43.8384V38.1607H44.2845L46.4516 41.828H48.4407V41.59H47.8028ZM43.8375 37.9381V34.1082H44.8624C46.1981 34.1082 46.7033 34.8951 46.7033 35.9336C46.7033 37.2257 46.02 37.9381 44.2981 37.9381H43.8375Z" fill="white"/>
<path d="M53.6224 38.9175C53.6379 38.7694 53.6379 38.6358 53.6379 38.5023C53.6379 37.0321 52.8801 36.1416 51.3517 36.1416C49.8234 36.1416 48.6494 37.3737 48.6494 39.1401C48.6494 40.9065 49.6735 41.9905 51.3363 41.9905C52.3312 41.9905 53.1472 41.5008 53.5188 40.8184L53.4443 40.7584C52.9691 41.2191 52.4203 41.4263 51.8415 41.4263C50.7275 41.4263 49.837 40.6694 49.837 39.022V38.9175H53.6224ZM51.3799 36.3197C52.1522 36.3197 52.5084 37.092 52.5084 38.3687V38.5913L49.8361 38.7249C49.9106 37.2401 50.4894 36.3197 51.3799 36.3197Z" fill="white"/>
<path d="M59.114 41.3972V38.1906C59.114 37.4328 58.9804 36.973 58.6988 36.6759C58.3571 36.3052 57.7638 36.1416 56.9169 36.1416C56.4717 36.1416 55.7148 36.2452 55.225 36.4833C55.0614 36.8394 54.9133 37.5963 54.9279 37.968L55.0469 38.0125L55.6403 37.2992C56.2345 36.5868 56.5907 36.3197 56.9024 36.3197C57.6302 36.3197 57.9564 36.7204 57.9564 37.8635V39.0511L54.9724 39.2446C54.7198 39.6008 54.6162 40.0315 54.6162 40.3877C54.6162 41.2482 55.1805 41.9905 56.3681 41.9905C57.0505 41.9905 57.6302 41.6344 57.9564 41.0256C57.9709 41.4117 58.06 41.7234 58.149 41.946L59.9609 41.5453V41.3972H59.114ZM57.9573 40.8629C57.6756 41.2482 57.2295 41.4417 56.8142 41.4417C56.2799 41.4417 55.7302 41.0701 55.7302 40.2241C55.7302 39.8979 55.7902 39.5854 55.9083 39.3482H57.9573V40.8629Z" fill="white"/>
<path d="M62.3211 33.4697L60.2275 33.8414V34.0049H61.1634V41.6348H60.2875V41.8283H63.1815V41.6348H62.3211V33.4697Z" fill="white"/>
<path d="M72.6685 39.6311L72.0297 40.8041C71.7326 41.4274 71.5399 41.591 71.0057 41.591H68.7495V37.9691H70.754L71.4073 39.1422H71.5854V36.5589H71.4073L70.754 37.7465H68.7495V34.1092H70.6649C71.2437 34.1092 71.3773 34.2728 71.689 34.7925L72.2832 35.8166H72.4759C72.5058 35.3268 72.4904 34.4509 72.4168 33.8721H66.4043V34.1092H67.4583V41.591H66.4043V41.8281H72.7584C72.8475 41.1894 72.892 40.2544 72.862 39.6311H72.6694H72.6685Z" fill="white"/>
<path d="M76.5726 38.5468L75.7412 38.2497C75.1769 38.0416 74.8062 37.8489 74.8062 37.3737C74.8062 36.7504 75.3259 36.3197 76.0383 36.3197C76.6616 36.3197 76.9587 36.6014 77.285 37.1811L77.6557 37.8044L77.8038 37.7899C77.8338 37.1956 77.8038 36.8394 77.7593 36.4387C77.4476 36.2906 76.7943 36.1416 76.0665 36.1416C74.8789 36.1416 74.0029 36.8249 74.0029 37.9235C74.0029 38.2951 74.1065 38.6213 74.3446 38.8584C74.5817 39.1111 74.9388 39.2891 75.4131 39.4672L76.2 39.7489C76.8833 40.0015 77.2241 40.2087 77.2241 40.6994C77.2241 41.3081 76.7634 41.7979 75.9919 41.7979C75.3386 41.7979 75.027 41.5008 74.5227 40.6103L74.1965 40.046L74.0484 40.076C74.0184 40.6403 74.0484 41.2336 74.0929 41.6343C74.5826 41.8715 75.355 41.9905 75.9638 41.9905C77.1814 41.9905 78.1463 41.2482 78.1463 40.1351C78.1463 39.7789 78.0128 39.4818 77.8201 39.2592C77.5385 38.932 77.0632 38.7394 76.5735 38.5468H76.5726Z" fill="white"/>
<path d="M81.5756 41.4414C81.1004 41.4414 80.7442 41.2188 80.7442 40.58V36.7201H82.4961V36.5275H80.7442V35.0137H80.6106L79.6011 36.4384L78.6807 36.5865V36.7201H79.5866V40.58C79.5866 41.515 80.0763 41.9902 80.9968 41.9902C81.8582 41.9902 82.3625 41.5595 82.6451 41.0843L82.5415 41.0098C82.2743 41.336 81.9027 41.4405 81.5765 41.4405L81.5756 41.4414Z" fill="white"/>
<path d="M87.6325 41.3972V38.1906C87.6325 37.4328 87.4989 36.973 87.2163 36.6759C86.8756 36.3052 86.2813 36.1416 85.4354 36.1416C84.9902 36.1416 84.2323 36.2452 83.7426 36.4833C83.5799 36.8394 83.4309 37.5963 83.4464 37.968L83.5645 38.0125L84.1587 37.2992C84.7521 36.5868 85.1083 36.3197 85.4208 36.3197C86.1478 36.3197 86.4749 36.7204 86.4749 37.8635V39.0511L83.4909 39.2446C83.2383 39.6008 83.1338 40.0315 83.1338 40.3877C83.1338 41.2482 83.6981 41.9905 84.8857 41.9905C85.569 41.9905 86.1478 41.6344 86.4749 41.0256C86.4894 41.4117 86.5785 41.7234 86.6675 41.946L88.4784 41.5453V41.3972H87.6325ZM86.4749 40.8629C86.1923 41.2482 85.7471 41.4417 85.3318 41.4417C84.7966 41.4417 84.2478 41.0701 84.2478 40.2241C84.2478 39.8979 84.3069 39.5854 84.4259 39.3482H86.4749V40.8629Z" fill="white"/>
<path d="M91.641 41.4414C91.1658 41.4414 90.8096 41.2188 90.8096 40.58V36.7201H92.5615V36.5275H90.8096V35.0137H90.6761L89.6666 36.4384L88.7461 36.5865V36.7201H89.652V40.58C89.652 41.515 90.1418 41.9902 91.0622 41.9902C91.9236 41.9902 92.4279 41.5595 92.7105 41.0843L92.6069 41.0098C92.3398 41.336 91.9681 41.4405 91.6419 41.4405L91.641 41.4414Z" fill="white"/>
<path d="M97.9642 38.9175C97.9788 38.7694 97.9787 38.6358 97.9787 38.5023C97.9787 37.0321 97.2219 36.1416 95.6926 36.1416C94.1634 36.1416 92.9912 37.3737 92.9912 39.1401C92.9912 40.9065 94.0152 41.9905 95.6781 41.9905C96.673 41.9905 97.489 41.5008 97.8606 40.8184L97.7861 40.7584C97.3109 41.2191 96.7621 41.4263 96.1833 41.4263C95.0693 41.4263 94.1788 40.6694 94.1788 39.022V38.9175H97.9642ZM95.7226 36.3197C96.4949 36.3197 96.8511 37.092 96.8511 38.3687V38.5913L94.1788 38.7249C94.2533 37.2401 94.8321 36.3197 95.7226 36.3197Z" fill="white"/>
<path d="M148.647 6.2928C148.615 5.57461 149.006 5.17785 149.82 5.10188C149.859 5.09863 149.899 5.09668 149.94 5.09668C150.546 5.09668 151.311 5.50188 152.237 6.31358C152.294 6.36358 152.352 6.41488 152.41 6.46877C152.43 6.48695 152.417 6.52007 152.391 6.52007H152.388C152.184 6.50384 151.98 6.49604 151.777 6.49604C151.653 6.49604 151.529 6.49929 151.406 6.50514C150.925 6.54994 150.438 6.60384 149.943 6.66553C149.942 6.66553 149.941 6.66553 149.94 6.66553C149.877 6.66877 149.816 6.67007 149.756 6.67007C149.209 6.67007 148.842 6.55124 148.657 6.31293C148.655 6.31098 148.654 6.31098 148.653 6.30903C148.649 6.30448 148.647 6.29799 148.647 6.29215V6.2928Z" fill="white"/>
<path d="M154.679 29.225C154.56 29.2912 154.442 29.3561 154.325 29.4211C150.021 31.8042 147.094 33.586 145.54 34.7698C145.49 35.712 145.358 36.1841 145.144 36.1841C144.781 35.8614 144.598 35.6322 144.598 35.4952H144.485C143.87 36.0042 143.379 36.5562 143.015 37.1517L145.276 37.0958C148.329 37.0335 151.092 36.8724 153.568 36.6121C153.648 36.6101 153.728 36.6088 153.806 36.6088C153.983 36.6088 154.156 36.614 154.325 36.6237C155.401 36.6848 156.311 36.9432 157.054 37.3978C157.369 37.5913 157.655 37.8199 157.911 38.0841C157.989 38.166 158.065 38.2504 158.135 38.338V10.1209C158.135 6.95718 156.044 4.2578 153.174 3.33766C153.181 3.34351 153.189 3.35 153.196 3.3565C154.146 4.17144 154.865 5.15716 155.351 6.31367C155.665 7.05978 155.883 7.87732 156.004 8.7663C156.253 10.5689 156.076 12.2248 155.474 13.7352C155.174 14.2735 154.791 14.8456 154.325 15.4521C153.329 16.7469 151.954 18.1976 150.2 19.8028C148.776 21.1054 147.244 22.3522 145.553 23.2911C144.661 23.7853 143.331 24.1652 142.118 24.1652C141.518 24.1652 140.946 24.0723 140.471 23.8548C139.445 23.3859 138.773 22.3846 138.26 21.3807C137.585 20.0606 137.09 18.6573 136.607 17.2553C136.599 17.2326 136.617 17.2157 136.635 17.2157C136.645 17.2157 136.653 17.2203 136.66 17.23C137.235 18.1735 137.836 19.1138 138.646 19.8632C139.452 20.6086 140.505 21.1515 141.594 21.1515C141.689 21.1515 141.785 21.1469 141.881 21.1385C142.663 21.0684 143.696 20.971 144.402 20.6249C145.479 20.0963 146.459 19.4307 147.437 18.7638C148.486 18.0489 149.465 17.2092 150.412 16.3664C152.188 14.7897 153.492 13.5131 154.325 12.5365C154.852 11.9196 155.189 11.4222 155.339 11.0449C155.342 11.0371 155.342 11.0293 155.339 11.0222C155.221 10.7124 154.883 10.4293 154.325 10.1735C154.242 10.1358 154.156 10.0988 154.065 10.0618C153.459 9.8215 152.82 9.70137 152.149 9.70137C151.87 9.70137 151.587 9.72215 151.298 9.76306C150.515 9.86825 150.029 9.92994 149.837 9.94813C149.674 9.96306 149.518 9.97085 149.368 9.97085C148.413 9.97085 147.72 9.66176 147.292 9.04357C147.034 8.67084 146.872 8.18577 146.805 7.58901C146.753 7.14939 146.745 6.72471 146.778 6.31367C146.854 5.34808 147.161 4.46105 147.698 3.65195C147.859 3.40909 148.025 3.19221 148.197 3H123.979V50.4752C123.979 51.7031 124.293 52.8616 124.848 53.8726C125.366 53.8622 126.075 53.657 126.978 53.2583C127.438 53.0544 127.949 52.8012 128.509 52.4966C129.287 52.0746 130.162 51.5551 131.134 50.9382C131.329 50.8142 131.527 50.6869 131.73 50.5557C132.054 50.3434 132.364 50.1401 132.659 49.9453C135.176 48.2843 136.648 47.2466 137.074 46.8323C137.279 46.6524 137.383 46.4784 137.383 46.3115C137.383 46.0673 137.144 45.7706 136.669 45.4238C136.09 44.9868 135.157 44.4595 133.871 43.842C132.47 43.1861 131.427 42.6264 130.746 42.1634C130.387 41.918 130.04 41.6537 129.707 41.3712C129.605 41.2848 129.503 41.1965 129.403 41.1063C128.721 40.4913 128.094 39.7952 127.525 39.0192C127.427 38.9004 127.245 38.7556 126.978 38.5835C126.938 38.5582 126.895 38.5316 126.852 38.5043C126.838 38.4958 126.825 38.4874 126.81 38.479C126.605 38.3634 126.502 38.0926 126.502 37.6692V36.0289C126.502 35.888 126.521 35.7848 126.559 35.7198C126.575 35.7042 126.599 35.6965 126.631 35.6965C126.683 35.6965 126.756 35.7179 126.852 35.7607C126.886 35.7763 126.924 35.7952 126.965 35.8172L126.978 35.8231L129.403 36.977L129.707 37.1211L129.762 37.1478C129.878 37.1991 129.981 37.251 130.071 37.3023C130.521 37.5595 130.94 37.9984 130.825 38.1263C130.779 38.1764 130.679 38.1945 130.536 38.1945C130.332 38.1945 130.043 38.1569 129.707 38.1192C129.609 38.1082 129.507 38.0978 129.403 38.0867C129.269 38.0738 129.132 38.0627 128.991 38.0543C129.123 38.1835 129.26 38.3114 129.403 38.4361C129.502 38.5231 129.603 38.6095 129.707 38.6939C130.629 39.4497 131.74 40.1303 133.042 40.7361C135.086 41.7011 136.296 42.3244 136.669 42.6069C137.568 43.2245 138.019 44.2927 138.019 45.8102C138.019 46.1316 137.993 46.4466 137.942 46.755C137.8 47.5914 137.633 48.183 137.44 48.5297C137.312 48.7739 137.029 49.096 136.591 49.4947C136.444 49.6284 136.266 49.7784 136.059 49.9453C135.706 50.2291 135.268 50.5603 134.744 50.9382C134.117 51.3901 133.368 51.9096 132.495 52.4966C132.144 52.7324 131.773 52.9791 131.382 53.2376C131.164 53.3856 130.95 53.5291 130.741 53.6674C129.065 54.7778 127.712 55.572 126.683 56.0506C126.683 56.0506 126.684 56.051 126.684 56.0519C127.899 57.0188 129.436 57.598 131.099 57.598H158.133C158.133 57.598 158.135 57.5973 158.135 57.5967V46.3147C157.833 46.8648 157.473 47.4024 157.054 47.9284C156.322 48.846 155.413 49.7278 154.325 50.5726C154.167 50.6953 154.006 50.8174 153.841 50.9382C153.822 50.9518 153.803 50.9661 153.784 50.9797C152.897 51.6252 151.905 52.1168 150.851 52.4194C149.711 52.7473 148.587 52.9239 147.481 52.9486C147.416 52.9505 147.352 52.9505 147.289 52.9505C145.375 52.9505 143.651 52.2798 142.114 50.9382C142.018 50.8544 141.923 50.768 141.829 50.6784C140.559 48.9537 139.9 46.9875 139.85 44.7803L139.831 43.6641C139.793 42.2991 139.937 40.9153 140.264 39.514C139.806 39.4147 139.185 39.2699 138.725 39.1614C138.142 39.0231 137.577 38.8205 137.046 38.5432C136.679 38.3517 136.389 38.1608 136.175 37.9699C135.346 37.164 134.806 36.3822 134.555 35.6257C134.14 34.8692 133.751 29.4795 133.386 19.456C133.248 16.5664 132.996 14.104 132.633 12.0696C132.344 10.891 132.105 10.2273 131.916 10.0786C131.74 10.0786 131.307 10.8851 130.616 12.4975L130.522 12.5533H130.484C130.421 12.5533 130.39 12.5228 130.39 12.4605C130.39 11.4423 130.679 10.3027 131.257 9.04357C131.336 8.87279 131.419 8.70006 131.508 8.52538C131.664 8.21759 131.888 7.9481 132.165 7.74356C132.223 7.70005 132.26 7.67862 132.275 7.67862H132.501C132.899 7.67862 133.249 8.13317 133.552 9.04357C134.29 11.2611 134.743 16.1833 134.912 23.8106C134.912 23.9424 134.913 24.0723 134.914 24.2022C134.914 24.2872 134.915 24.3723 134.915 24.4567C134.948 28.675 135.312 31.8639 136.006 34.0263C136.398 34.9581 137.079 35.7289 138.047 36.3426C139.211 36.8341 140.294 37.0809 141.298 37.0809C141.368 37.0809 141.438 37.0789 141.508 37.077C141.508 37.027 142.098 36.1783 143.279 34.5276V34.4159C142.274 33.9666 140.864 33.0958 139.049 31.8023C138.762 31.5977 138.512 31.3432 138.327 31.0438C138.107 30.6847 137.992 30.3081 137.984 29.9133C137.956 28.9087 138.461 28.0996 139.5 27.4853C140.091 27.136 140.753 26.9223 141.435 26.8379C142.888 26.6587 144.734 26.5425 146.973 26.4899L151.494 26.3775C151.647 26.3775 153.113 26.3827 154.325 26.3866C155.211 26.3892 155.961 26.3925 155.961 26.3925L155.965 26.5938C155.904 26.7756 155.915 26.9626 155.887 27.1522C155.684 28.5224 155.93 28.4996 154.679 29.225ZM139.829 12.7969C140.162 12.528 141.013 12.9663 141.309 13.1897C142.123 13.8047 142.46 14.6248 142.925 15.4813C142.972 15.5657 142.974 15.6846 143.112 15.6761C143.123 14.5774 142.744 12.2722 143.494 11.3962C144.053 10.7442 145.02 11.4618 145.114 12.0832C145.136 12.2332 145.093 12.9124 144.907 12.9131C144.559 12.9144 144.018 11.941 143.668 12.8826C143.168 14.2267 144.047 16.2365 143.344 17.556C143.064 17.3735 143.035 17.0027 142.864 16.6937C142.641 16.2898 141.532 14.6754 141.188 14.5001C141.109 14.4592 141.084 14.4332 140.991 14.4865C140.787 15.1248 139.594 14.543 139.44 14.18C139.367 14.0073 139.687 12.9118 139.829 12.7969ZM151.466 21.9885C150.724 22.5294 149.779 23.2463 148.639 24.1437C148.316 24.3976 147.976 24.6671 147.622 24.9502C147.52 25.0314 147.416 25.1139 147.313 25.197L147.292 24.9626L147.25 24.4658C147.362 24.3762 147.483 24.2788 147.615 24.1743C147.692 24.1139 147.772 24.0509 147.855 23.9859C147.855 23.9859 147.855 23.9855 147.856 23.9846L151.42 21.2547C151.927 20.8846 152.565 20.4307 153.333 19.8924C153.754 19.5982 154.214 19.2781 154.713 18.9339L154.761 19.6619C154.654 19.6995 153.888 20.2268 151.466 21.9885ZM156.762 40.5075C156.357 40.2426 155.849 40.0043 155.251 39.7991L154.286 39.729L153.304 39.6582C148.923 39.966 145.916 40.1407 144.366 40.1777H144.353C144.145 40.1777 142.993 40.1621 141.932 40.1465C141.433 41.527 141.198 42.8732 141.231 44.1517C141.289 46.5635 142.272 48.1576 144.236 49.0278C144.826 49.2888 145.478 49.4602 146.173 49.5356C146.61 49.583 146.984 49.6076 147.286 49.6076C147.329 49.6076 147.37 49.6076 147.409 49.6057L148.28 49.5869C150.309 49.5388 152.237 48.8583 154.011 47.5661C154.919 46.9044 155.807 46.0686 156.648 45.0823C156.961 44.7173 157.273 44.3238 157.578 43.9102C157.798 43.3141 157.945 42.8537 158.015 42.5426C158.023 42.5037 158.026 42.4654 158.024 42.427C157.976 41.6595 157.563 41.0322 156.762 40.5075ZM149.642 45.3829C149.567 45.792 149.499 46.2024 149.437 46.6115C149.3 47.244 149.139 47.5602 148.953 47.5602C148.729 47.5602 148.308 47.3992 147.688 47.0765C147.118 46.7784 146.811 46.5927 146.766 46.518C146.724 46.444 146.69 46.2946 146.664 46.0712C146.801 45.6498 146.968 45.042 147.167 44.2485C147.204 44.0121 147.272 43.9011 147.372 43.9128L147.688 44.118C148.06 44.2667 148.618 44.5277 149.363 44.8992C149.449 44.9238 149.531 44.955 149.605 44.9927C149.679 45.029 149.691 45.1602 149.642 45.3829ZM148.277 28.7762C148.148 28.7762 148.021 28.7763 147.896 28.7788C142.217 29.0639 139.385 29.399 139.398 29.7834V29.8763L144.749 33.188C147.576 31.0172 149.774 29.6217 151.344 29.0009V28.8892C150.22 28.8139 149.198 28.7762 148.277 28.7762Z" fill="white"/>
<path d="M154.761 19.6614L154.762 19.6829C154.779 19.6634 154.78 19.6547 154.761 19.6614Z" fill="white"/>
</svg>
